<?xml version="1.0" encoding="UTF-8" standalone="no"?>
<svg width="9px" height="13px" viewBox="0 0 9 13" version="1.1" xmlns="http://www.w3.org/2000/svg" xmlns:xlink="http://www.w3.org/1999/xlink">
    <!-- Generator: Sketch 48.2 (47327) - http://www.bohemiancoding.com/sketch -->
    <title>Shape Copy 2</title>
    <desc>Created with Sketch.</desc>
    <defs></defs>
    <g id="01_a_Entrainement-Copy-23" stroke="none" stroke-width="1" fill="none" fill-rule="evenodd" transform="translate(-263.000000, -643.000000)">
        <g id="Group-4" transform="translate(29.000000, 535.000000)" fill="#C28100" fill-rule="nonzero">
            <g id="Group">
                <path d="M235.32784,113.206364 L234.017021,108.522727 C233.974736,108.397273 234.017021,108.271818 234.080448,108.167273 C234.165017,108.062727 234.29187,108 234.418724,108 L236.702086,108 C236.892367,108 237.061505,108.125455 237.103789,108.313636 L238.182044,112.160909 C237.103789,112.160909 236.110103,112.558182 235.32784,113.206364 Z M242.907805,108.167273 C242.823236,108.062727 242.696383,108 242.569529,108 L240.286167,108 C240.095886,108 239.926748,108.125455 239.884464,108.313636 L238.806209,112.160909 C239.905606,112.160909 240.899292,112.558182 241.681555,113.206364 L242.992374,108.522727 C243.013517,108.397273 242.992374,108.271818 242.907805,108.167273 Z M242.407637,117.145 C242.407637,119.279758 240.647648,121 238.510519,121 C236.373389,121 234.6134,119.279758 234.6134,117.145 C234.6134,115.030968 236.352437,113.29 238.510519,113.29 C240.6686,113.29 242.407637,115.030968 242.407637,117.145 Z" id="Shape-Copy-2"></path>
            </g>
        </g>
    </g>
</svg>