<?xml version="1.0" encoding="utf-8"?>
<!-- Generator: Adobe Illustrator 22.0.1, SVG Export Plug-In . SVG Version: 6.00 Build 0)  -->
<svg version="1.1" id="Calque_1" xmlns="http://www.w3.org/2000/svg" xmlns:xlink="http://www.w3.org/1999/xlink" x="0px" y="0px"
	 viewBox="0 0 36.1 36" style="enable-background:new 0 0 36.1 36;" xml:space="preserve">
<style type="text/css">
	.st0{fill:#FFFFFF;}
</style>
<path id="Shape_2_" class="st0" d="M18.4,0.7C8.8,0.7,0.9,8.5,0.9,18.2s7.8,17.5,17.5,17.5s17.5-7.8,17.5-17.5S28.1,0.7,18.4,0.7z
	 M26.5,19.4l-11.7,6.8c-0.2,0.2-0.5,0.2-0.7,0.2c-0.2,0-0.5,0-0.7-0.2c-0.5-0.2-0.7-0.7-0.7-1.2V11.4c0-0.5,0.3-1,0.7-1.2
	c0.5-0.2,1-0.2,1.4,0l11.7,6.8c0.5,0.2,0.7,0.7,0.7,1.2S26.9,19.2,26.5,19.4z"/>
</svg>
