<?xml version="1.0" encoding="UTF-8"?>
<svg width="45px" height="44px" viewBox="0 0 45 44" version="1.1" xmlns="http://www.w3.org/2000/svg" xmlns:xlink="http://www.w3.org/1999/xlink">
    <!-- Generator: Sketch 48.2 (47327) - http://www.bohemiancoding.com/sketch -->
    <title>Combined Shape</title>
    <desc>Created with Sketch.</desc>
    <defs>
        <path d="M204.375,540.51569 C203.063324,540.51569 202,539.45061 202,538.136768 C202,536.822925 203.063324,535.757845 204.375,535.757845 C205.686676,535.757845 206.75,536.822925 206.75,538.136768 C206.75,539.45061 205.686676,540.51569 204.375,540.51569 Z M237.625,540.51569 C236.313324,540.51569 235.25,539.45061 235.25,538.136768 C235.25,536.822925 236.313324,535.757845 237.625,535.757845 C238.936676,535.757845 240,536.822925 240,538.136768 C240,539.45061 238.936676,540.51569 237.625,540.51569 Z M221,535.757845 C219.688324,535.757845 218.625,534.692765 218.625,533.378923 C218.625,532.06508 219.688324,531 221,531 C222.311676,531 223.375,532.06508 223.375,533.378923 C223.375,534.692765 222.311676,535.757845 221,535.757845 Z M204.375,542.656721 C204.375,542.180936 204.8975,541.895465 205.2775,542.180936 L213.0675,548.413713 C213.305,548.604027 213.685,548.556449 213.875,548.270978 L220.7625,537.470669 C221,537.13762 221.475,537.13762 221.7125,537.470669 L228.2675,548.080664 C228.4575,548.366135 228.8375,548.461292 229.1225,548.223399 L236.2475,542.228515 C236.58,541.895465 237.15,542.180936 237.15,542.656721 L237.533854,557.915536 C234.267227,557.726983 207.271787,557.810701 204.259955,558 L204.375,542.656721 Z" id="path-1"></path>
    </defs>
    <g id="01_a_Entrainement-Copy" stroke="none" stroke-width="1" fill="none" fill-rule="evenodd" transform="translate(-197.000000, -524.000000)">
        <g id="Combined-Shape" fill-rule="nonzero" transform="translate(221.000000, 544.500000) rotate(41.000000) translate(-221.000000, -544.500000) ">
            <use fill="#FCCB49" fill-rule="evenodd" xlink:href="#path-1"></use>
            <path stroke="#FFFFFF" stroke-width="1.5999999" d="M204.375,541.31569 C202.6212,541.31569 201.2,539.892143 201.2,538.136768 C201.2,536.381393 202.6212,534.957845 204.375,534.957845 C206.1288,534.957845 207.55,536.381393 207.55,538.136768 C207.55,539.892143 206.1288,541.31569 204.375,541.31569 Z M237.625,541.31569 C235.8712,541.31569 234.45,539.892143 234.45,538.136768 C234.45,536.381393 235.8712,534.957845 237.625,534.957845 C239.3788,534.957845 240.8,536.381393 240.8,538.136768 C240.8,539.892143 239.3788,541.31569 237.625,541.31569 Z M221,536.557845 C219.2462,536.557845 217.825,535.134298 217.825,533.378923 C217.825,531.623547 219.2462,530.2 221,530.2 C222.7538,530.2 224.175,531.623547 224.175,533.378923 C224.175,535.134298 222.7538,536.557845 221,536.557845 Z M203.575004,542.653156 C203.577676,541.529426 204.843631,540.854402 205.777294,541.556271 L213.346294,547.612227 L220.111151,537.006187 C220.667664,536.225781 221.807336,536.225781 222.393088,537.050193 L228.811387,547.439776 L235.681348,541.663296 C236.536499,540.806732 237.95,541.491814 237.949747,542.636602 L238.355458,558.764291 L237.487754,558.714207 C234.32256,558.531509 207.359791,558.606748 204.310137,558.798424 L203.453542,558.852263 L203.575004,542.653156 Z M228.811387,547.439776 L228.933478,547.637411 C228.87719,547.55284 228.714877,547.521575 228.607449,547.611254 L228.811387,547.439776 Z"></path>
        </g>
    </g>
</svg>