<svg xmlns="http://www.w3.org/2000/svg" viewBox="0 0 48.3 34.91"><defs><style>.cls-1{fill:#ec1140;}.cls-2{fill:#10b2c0;}.cls-3{fill:#2ad4e2;}.cls-4{fill:#fff;}</style></defs><title>Fichier 4</title><g id="Calque_2" data-name="Calque 2"><g id="Calque_1-2" data-name="Calque 1"><g id="Rectangle-2-Copy-2"><g id="Mask"><path id="path-13" class="cls-1" d="M10,34.91H37.8a7.2,7.2,0,0,0,7.13-6.17l3.32-23A5,5,0,0,0,44,.05a5.81,5.81,0,0,0-.72,0H5A5,5,0,0,0,0,5a4.3,4.3,0,0,0,0,.62L2.88,28.59A7.2,7.2,0,0,0,10,34.91Z"/></g><g id="Mask-Copy"><path id="path-15" class="cls-2" d="M10,34.91H37.8a7.2,7.2,0,0,0,7.13-6.17l3.32-23A5,5,0,0,0,44,.05a5.81,5.81,0,0,0-.72,0H5A5,5,0,0,0,0,5a4.3,4.3,0,0,0,0,.62L2.88,28.59A7.2,7.2,0,0,0,10,34.91Z"/></g><g id="Mask-Copy-3"><path id="path-17" class="cls-3" d="M9.94,31.29h28A7.2,7.2,0,0,0,45,25.23L48.14,5.84A5.05,5.05,0,0,0,44,.06,5.52,5.52,0,0,0,43.16,0h-38a5,5,0,0,0-5,5,5.34,5.34,0,0,0,.05.69L2.8,25.07A7.22,7.22,0,0,0,9.94,31.29Z"/></g></g><path id="Shape" class="cls-4" d="M17.59,22.66a.54.54,0,0,0,.31.35l3.36,2a.58.58,0,0,0,.5.09.62.62,0,0,0,.4-.27l1.55-1.89a6,6,0,0,0,.95.05,5.06,5.06,0,0,0,.95-.06l1.39,2a.68.68,0,0,0,.57.3.59.59,0,0,0,.34-.1l3.39-2a.68.68,0,0,0,.28-.82l-1-2.17a7,7,0,0,0,.94-1.61l2.37-.21a.67.67,0,0,0,.62-.63V13.74a.66.66,0,0,0-.6-.63l-2.46-.28a6.1,6.1,0,0,0-.95-1.61l1-2.2a.75.75,0,0,0,0-.47.53.53,0,0,0-.32-.35l-3.35-2a.68.68,0,0,0-.5-.09.7.7,0,0,0-.41.28l-1.4,2a6.18,6.18,0,0,0-1-.05,5.93,5.93,0,0,0-.94.05l-1.4-1.95a.67.67,0,0,0-.41-.29.64.64,0,0,0-.5.09l-3.36,2A.69.69,0,0,0,17.6,9l1,2.17a7.28,7.28,0,0,0-.94,1.62L15.27,13a.64.64,0,0,0-.62.62v3.89a.66.66,0,0,0,.6.63l2.38.21A6.69,6.69,0,0,0,18.58,20l-1,2.2A.72.72,0,0,0,17.59,22.66Zm7.07-10.41a3.36,3.36,0,1,1-2.41,1A3.35,3.35,0,0,1,24.66,12.25Z"/></g></g></svg>