<svg xmlns="http://www.w3.org/2000/svg" viewBox="0 0 53.62 38.55"><defs><style>.cls-1{fill:#ec1140;}.cls-2{fill:#9e93d1;}.cls-3{fill:#bab2e4;}.cls-4{fill:#fff;}</style></defs><title>Fichier 1</title><g id="Calque_2" data-name="Calque 2"><g id="Calque_1-2" data-name="Calque 1"><g id="Rectangle-2-Copy-2"><g id="Mask"><path id="path-13" class="cls-1" d="M11.13,38.55H42a8,8,0,0,0,7.92-6.85L53.56,6.41A5.59,5.59,0,0,0,48.83.06,5.52,5.52,0,0,0,48,0H5.6A5.6,5.6,0,0,0,0,5.6a5.32,5.32,0,0,0,0,.69L3.19,31.53A8,8,0,0,0,11.13,38.55Z"/></g><g id="Mask-Copy"><path id="path-15" class="cls-2" d="M11.13,38.55H42a8,8,0,0,0,7.92-6.85L53.56,6.41A5.59,5.59,0,0,0,48.83.06,5.52,5.52,0,0,0,48,0H5.6A5.6,5.6,0,0,0,0,5.6a5.32,5.32,0,0,0,0,.69L3.19,31.53A8,8,0,0,0,11.13,38.55Z"/></g><g id="Mask-Copy-3"><path id="path-17" class="cls-3" d="M11,34.55H42.08A8,8,0,0,0,50,27.83L53.44,6.5A5.61,5.61,0,0,0,48.81.07a5.46,5.46,0,0,0-.9-.07H5.69A5.6,5.6,0,0,0,.09,5.6a6.49,6.49,0,0,0,.05.77l3,21.28A8,8,0,0,0,11,34.55Z"/></g></g><path id="Shape" class="cls-4" d="M19.52,25a.64.64,0,0,0,.36.38l3.72,2.17a.71.71,0,0,0,.55.11.73.73,0,0,0,.45-.31l1.72-2.09a6.22,6.22,0,0,0,1.06.06,6.17,6.17,0,0,0,1.05-.06L30,27.44a.74.74,0,0,0,.63.33.76.76,0,0,0,.38-.11l3.75-2.2a.74.74,0,0,0,.32-.9l-1.16-2.4a7.51,7.51,0,0,0,1-1.78l2.64-.23a.73.73,0,0,0,.69-.69V15.17a.73.73,0,0,0-.67-.69l-2.73-.31a7,7,0,0,0-1-1.78L34.9,10a.74.74,0,0,0,0-.51.6.6,0,0,0-.35-.38L30.83,6.89a.74.74,0,0,0-1,.21L28.27,9.26a6.39,6.39,0,0,0-1.07,0,6.17,6.17,0,0,0-1.05.06L24.6,7.11a.8.8,0,0,0-.46-.32.72.72,0,0,0-.55.1L19.85,9.08a.75.75,0,0,0-.31.9l1.09,2.4a7.41,7.41,0,0,0-1,1.78L17,14.39a.73.73,0,0,0-.69.69v4.3a.72.72,0,0,0,.67.69l2.64.23a7,7,0,0,0,1.06,1.78l-1.1,2.44A.78.78,0,0,0,19.52,25Zm7.86-11.5a3.75,3.75,0,1,1-3.77,3.75,3.64,3.64,0,0,1,1.09-2.66A3.72,3.72,0,0,1,27.38,13.52Z"/></g></g></svg>