<svg xmlns="http://www.w3.org/2000/svg" viewBox="0 0 48.3 34.91"><defs><style>.cls-1{fill:#ec1140;}.cls-2{fill:#10b2c0;}.cls-3{fill:#2ad4e2;}.cls-4{fill:#fff;}</style></defs><title>Fichier 1</title><g id="Calque_2" data-name="Calque 2"><g id="Calque_1-2" data-name="Calque 1"><g id="Rectangle-2-Copy-3"><g id="Mask"><path id="path-19" class="cls-1" d="M10,34.91H37.8a7.2,7.2,0,0,0,7.13-6.17l3.32-23A5,5,0,0,0,44,.05a5.81,5.81,0,0,0-.72,0H5A5,5,0,0,0,0,5a4.3,4.3,0,0,0,0,.62L2.88,28.59A7.2,7.2,0,0,0,10,34.91Z"/></g><g id="Mask-Copy-4"><path id="path-21" class="cls-2" d="M10,34.91H37.8a7.2,7.2,0,0,0,7.13-6.17l3.32-23A5,5,0,0,0,44,.05a5.81,5.81,0,0,0-.72,0H5A5,5,0,0,0,0,5a4.3,4.3,0,0,0,0,.62L2.88,28.59A7.2,7.2,0,0,0,10,34.91Z"/></g><g id="Mask-Copy-5"><path id="path-23" class="cls-3" d="M9.94,31.29h28A7.2,7.2,0,0,0,45,25.23L48.14,5.84A5.05,5.05,0,0,0,44,.06,5.52,5.52,0,0,0,43.16,0h-38a5,5,0,0,0-5,5,5.34,5.34,0,0,0,.05.69L2.8,25.07A7.22,7.22,0,0,0,9.94,31.29Z"/></g></g><path id="Shape" class="cls-4" d="M30,24.77a1.46,1.46,0,0,1-1.53.11l-4.35-2.3-4.34,2.27a1.46,1.46,0,0,1-2.12-1.53l.82-4.84L15,15a1.47,1.47,0,0,1-.37-1.49,1.45,1.45,0,0,1,1.17-1l4.86-.69,2.16-4.4a1.45,1.45,0,0,1,1.3-.81,1.47,1.47,0,0,1,1.31.81l2.19,4.42,4.86.72a1.45,1.45,0,0,1,.81,2.48l-3.51,3.42.85,4.84a1.47,1.47,0,0,1-.4,1.28A1.24,1.24,0,0,1,30,24.77Z"/></g></g></svg>