<svg xmlns="http://www.w3.org/2000/svg" viewBox="0 0 53.62 38.55"><defs><style>.cls-1{fill:#ec1140;}.cls-2{fill:#9e93d1;}.cls-3{fill:#bab2e4;}.cls-4{fill:#fff;}</style></defs><title>Fichier 6</title><g id="Calque_2" data-name="Calque 2"><g id="Calque_1-2" data-name="Calque 1"><g id="Rectangle-2-Copy-3"><g id="Mask"><path id="path-19" class="cls-1" d="M11.13,38.55H42a8,8,0,0,0,7.92-6.85L53.56,6.41A5.59,5.59,0,0,0,48.83.06,5.52,5.52,0,0,0,48,0H5.6A5.6,5.6,0,0,0,0,5.6a5.32,5.32,0,0,0,0,.69L3.19,31.53A8,8,0,0,0,11.13,38.55Z"/></g><g id="Mask-Copy-4"><path id="path-21" class="cls-2" d="M11.13,38.55H42a8,8,0,0,0,7.92-6.85L53.56,6.41A5.59,5.59,0,0,0,48.83.06,5.52,5.52,0,0,0,48,0H5.6A5.6,5.6,0,0,0,0,5.6a5.32,5.32,0,0,0,0,.69L3.19,31.53A8,8,0,0,0,11.13,38.55Z"/></g><g id="Mask-Copy-5"><path id="path-23" class="cls-3" d="M11,34.55H42.08A8,8,0,0,0,50,27.83L53.44,6.5A5.61,5.61,0,0,0,48.81.07a5.46,5.46,0,0,0-.9-.07H5.69A5.6,5.6,0,0,0,.09,5.6a6.49,6.49,0,0,0,.05.77l3,21.28A8,8,0,0,0,11,34.55Z"/></g></g><path id="Shape" class="cls-4" d="M33.27,27.36a1.63,1.63,0,0,1-1.7.12L26.76,25l-4.82,2.53a1.61,1.61,0,0,1-1.69-.12,1.63,1.63,0,0,1-.64-1.58l.92-5.36-3.9-3.8a1.61,1.61,0,0,1,.89-2.74l5.39-.78,2.41-4.88a1.6,1.6,0,0,1,2.88,0l2.41,4.88,5.38.78a1.6,1.6,0,0,1,.89,2.74L33,20.42l.92,5.36a1.62,1.62,0,0,1-.45,1.41A1.54,1.54,0,0,1,33.27,27.36Z"/></g></g></svg>