<?xml version="1.0" encoding="UTF-8"?>
<svg width="22px" height="30px" viewBox="0 0 22 30" version="1.1" xmlns="http://www.w3.org/2000/svg" xmlns:xlink="http://www.w3.org/1999/xlink">
    <!-- Generator: Sketch 48.2 (47327) - http://www.bohemiancoding.com/sketch -->
    <title>Shape</title>
    <desc>Created with Sketch.</desc>
    <defs></defs>
    <g id="01_a_Entrainement-Copy-11" stroke="none" stroke-width="1" fill="none" fill-rule="evenodd" transform="translate(-178.000000, -601.000000)">
        <g id="Group-7" transform="translate(83.000000, 589.000000)" fill="#FFFFFF" fill-rule="nonzero">
            <g id="buttons-copy" transform="translate(78.000000, 0.000000)">
                <g id="Group-18">
                    <path d="M29,19.6 C24.4,19.6 24,17.8 20,17.6 L20,16.2 C20.6,15.9 21,15.2 21,14.5 C21,13.4 20.1,12.5 19,12.5 C17.9,12.5 17,13.4 17,14.5 C17,15.2 17.4,15.9 18,16.2 L18,41.5 L20,41.5 L20,31.5 C24,31.8 24.4,33.5 29,33.5 C33.9,33.5 34.1,31.4 39,31.4 L39,17.5 C34.1,17.5 33.9,19.6 29,19.6 Z" id="Shape"></path>
                </g>
            </g>
        </g>
    </g>
</svg>