<svg xmlns="http://www.w3.org/2000/svg" viewBox="0 0 48.3 34.91"><defs><style>.cls-1{fill:#ec1140;}.cls-2{fill:#10b2c0;}.cls-3{fill:#2ad4e2;}.cls-4{fill:#fff;}</style></defs><title>Fichier 2</title><g id="Calque_2" data-name="Calque 2"><g id="Calque_1-2" data-name="Calque 1"><g id="Rectangle-2-Copy"><g id="Mask"><path id="path-25" class="cls-1" d="M10,0H37.8a7.2,7.2,0,0,1,7.13,6.17l3.32,23A5,5,0,0,1,44,34.86a5.81,5.81,0,0,1-.72,0H5a5,5,0,0,1-5-5,4.21,4.21,0,0,1,0-.62L2.88,6.31A7.2,7.2,0,0,1,10,0Z"/></g><g id="Mask-Copy-6"><path id="path-27" class="cls-2" d="M10,0H37.8a7.2,7.2,0,0,1,7.13,6.17l3.32,23A5,5,0,0,1,44,34.86a5.81,5.81,0,0,1-.72,0H5a5,5,0,0,1-5-5,4.21,4.21,0,0,1,0-.62L2.88,6.31A7.2,7.2,0,0,1,10,0Z"/></g><g id="Mask-Copy-7"><path id="path-29" class="cls-3" d="M9.94,0h28A7.19,7.19,0,0,1,45,6.05l3.13,19.39A5,5,0,0,1,44,31.22a5.54,5.54,0,0,1-.81.07h-38a5,5,0,0,1-5-5,5.21,5.21,0,0,1,.05-.69L2.8,6.21A7.21,7.21,0,0,1,9.94,0Z"/></g></g><path id="Shape" class="cls-4" d="M33.9,10.62,31,8.21A1.18,1.18,0,0,0,30.28,8H27.71a1.12,1.12,0,0,0-1.06.73A2.89,2.89,0,0,1,24,10.62a2.93,2.93,0,0,1-2.7-1.94,1,1,0,0,0-1-.73H17.69a1.23,1.23,0,0,0-.73.26l-2.9,2.41A1.24,1.24,0,0,0,13.72,12l1.71,4.15a1.1,1.1,0,0,0,1,.71.63.63,0,0,0,.52-.34v8.22a1.38,1.38,0,0,0,1.27,1.31H29.73c.63,0,1.12-.66,1.25-1.26V16.56c.23.31.41.31.51.31a1.17,1.17,0,0,0,1.07-.71L34.27,12A1.23,1.23,0,0,0,33.9,10.62Z"/></g></g></svg>