<svg xmlns="http://www.w3.org/2000/svg" viewBox="0 0 53.62 38.55"><defs><style>.cls-1{fill:#ec1140;}.cls-2{fill:#9e93d1;}.cls-3{fill:#bab2e4;}.cls-4{fill:#fff;}</style></defs><title>Fichier 5</title><g id="Calque_2" data-name="Calque 2"><g id="Calque_1-2" data-name="Calque 1"><g id="Rectangle-2-Copy"><g id="Mask"><path id="path-25" class="cls-1" d="M11.13,0H42a8,8,0,0,1,7.92,6.85l3.67,25.29a5.6,5.6,0,0,1-4.73,6.35,5.52,5.52,0,0,1-.81.06H5.6A5.6,5.6,0,0,1,0,33a5.37,5.37,0,0,1,0-.7L3.19,7A8,8,0,0,1,11.13,0Z"/></g><g id="Mask-Copy-6"><path id="path-27" class="cls-2" d="M11.13,0H42a8,8,0,0,1,7.92,6.85l3.67,25.29a5.6,5.6,0,0,1-4.73,6.35,5.52,5.52,0,0,1-.81.06H5.6A5.6,5.6,0,0,1,0,33a5.37,5.37,0,0,1,0-.7L3.19,7A8,8,0,0,1,11.13,0Z"/></g><g id="Mask-Copy-7"><path id="path-29" class="cls-3" d="M11,0H42.08A8,8,0,0,1,50,6.72l3.46,21.33a5.6,5.6,0,0,1-4.63,6.42,5.47,5.47,0,0,1-.9.08H5.69A5.6,5.6,0,0,1,.09,29a6.81,6.81,0,0,1,.05-.78L3.1,6.9A8,8,0,0,1,11,0Z"/></g></g><path id="Shape" class="cls-4" d="M37.64,11.73,34.42,9.06a1.4,1.4,0,0,0-.81-.29H30.77a1.25,1.25,0,0,0-1.18.81,3.22,3.22,0,0,1-3,2.15,3.25,3.25,0,0,1-3-2.15,1.14,1.14,0,0,0-1.12-.81H19.63a1.4,1.4,0,0,0-.8.29l-3.22,2.67a1.35,1.35,0,0,0-.38,1.54l1.9,4.58a1.22,1.22,0,0,0,1.15.78.72.72,0,0,0,.58-.38v9.07a1.52,1.52,0,0,0,1.41,1.45H33c.69,0,1.24-.72,1.38-1.39v-9.1c.26.35.46.35.58.35a1.29,1.29,0,0,0,1.17-.78L38,13.27A1.36,1.36,0,0,0,37.64,11.73Z"/></g></g></svg>