<?xml version="1.0" encoding="UTF-8" standalone="no"?>
<svg width="15px" height="22px" viewBox="0 0 15 22" version="1.1" xmlns="http://www.w3.org/2000/svg" xmlns:xlink="http://www.w3.org/1999/xlink">
    <!-- Generator: Sketch 48.2 (47327) - http://www.bohemiancoding.com/sketch -->
    <title>Shape</title>
    <desc>Created with Sketch.</desc>
    <defs></defs>
    <g id="01_a_Entrainement-Copy-23" stroke="none" stroke-width="1" fill="none" fill-rule="evenodd" transform="translate(-167.000000, -634.000000)">
        <g id="Group-4" transform="translate(29.000000, 535.000000)" fill="#FCCB49" fill-rule="nonzero">
            <g id="Group">
                <path d="M140.210208,107.810769 L138.028331,99.8846154 C137.957948,99.6723077 138.028331,99.46 138.133906,99.2830769 C138.274672,99.1061538 138.485822,99 138.696971,99 L142.497659,99 C142.814383,99 143.095916,99.2123077 143.166299,99.5307692 L144.961068,106.041538 C143.166299,106.041538 141.512296,106.713846 140.210208,107.810769 Z M152.827162,99.2830769 C152.686396,99.1061538 152.475246,99 152.264097,99 L148.463409,99 C148.146685,99 147.865153,99.2123077 147.794769,99.5307692 L146,106.041538 C147.829961,106.041538 149.483964,106.713846 150.786052,107.810769 L152.967928,99.8846154 C153.00312,99.6723077 152.967928,99.46 152.827162,99.2830769 Z M151.994625,114.476154 C151.994625,118.088821 149.0651,121 145.507819,121 C141.950538,121 139.021013,118.088821 139.021013,114.476154 C139.021013,110.898561 141.915663,107.952308 145.507819,107.952308 C149.099975,107.952308 151.994625,110.898561 151.994625,114.476154 Z" id="Shape"></path>
            </g>
        </g>
    </g>
</svg>