<?xml version="1.0" encoding="UTF-8" standalone="no"?>
<svg width="16px" height="21px" viewBox="0 0 16 21" version="1.1" xmlns="http://www.w3.org/2000/svg" xmlns:xlink="http://www.w3.org/1999/xlink">
    <!-- Generator: Sketch 48.2 (47327) - http://www.bohemiancoding.com/sketch -->
    <title>Shape</title>
    <desc>Created with Sketch.</desc>
    <defs></defs>
    <g id="01_a_Entrainement-Copy-22" stroke="none" stroke-width="1" fill="none" fill-rule="evenodd" transform="translate(-180.000000, -443.000000)">
        <g id="Card" transform="translate(-243.000000, 126.000000)" fill="#FFFFFF" fill-rule="nonzero">
            <g id="Group-5-Copy" transform="translate(305.000000, 0.000000)">
                <g id="Group-6" transform="translate(87.000000, 309.000000)">
                    <path d="M45,15 L44,15 L44,13 C44,10.25 41.75,8 39,8 C36.25,8 34,10.25 34,13 L34,15 L33,15 C31.8999,15 31,15.8999 31,17 L31,27 C31,28.1001 31.8999,29 33,29 L45,29 C46.1001,29 47,28.1001 47,27 L47,17 C47,15.8999 46.1001,15 45,15 Z M39,24.1 C37.8999,24.1 37,23.2001 37,22.1 C37,20.9999 37.8999,20.1 39,20.1 C40.1001,20.1 41,20.9999 41,22.1 C41,23.2001 40.1001,24.1 39,24.1 Z M42.1001,15 L35.8999,15 L35.8999,13 C35.8999,11.2998 37.30005,9.8999 39,9.8999 C40.7002,9.8999 42.1001,11.2998 42.1001,13 L42.1001,15 Z" id="Shape"></path>
                </g>
            </g>
        </g>
    </g>
</svg>