<?xml version="1.0" encoding="utf-8"?>
<!-- Generator: Adobe Illustrator 22.0.1, SVG Export Plug-In . SVG Version: 6.00 Build 0)  -->
<svg version="1.1" id="Calque_1" xmlns="http://www.w3.org/2000/svg" xmlns:xlink="http://www.w3.org/1999/xlink" x="0px" y="0px"
	 viewBox="0 0 65.7 36.9" style="enable-background:new 0 0 65.7 36.9;" xml:space="preserve">
<style type="text/css">
	.st0{fill:#FFFFFF;}
</style>
<g>
	<title>Oval</title>
	<desc>Created with Sketch.</desc>
</g>
<g>
	<title>Group</title>
	<desc>Created with Sketch.</desc>
</g>
<path class="st0" d="M33.4,1.2c-9.7,0-17.5,7.8-17.5,17.5s7.8,17.5,17.5,17.5s17.5-7.8,17.5-17.5S43.1,1.2,33.4,1.2z M34.7,10.4
	c0.9-0.9,2.3-1,3.2-0.1c0.9,0.8,0.9,2.3,0.1,3.2c-0.9,0.9-2.3,1-3.2,0.1C33.9,12.8,33.8,11.4,34.7,10.4z M19.2,18.3
	c0.1-0.1,0.1-0.1,0.2-0.2c0.5,0.2,0.9,0.4,1.4,0.4c0.7,0,1.3-0.3,2.1-0.7c0.7-0.4,1.5-0.8,2.2-0.8c0.5,0,1.1,0.2,2,0.6L25.6,18
	c-0.2,0-0.4,0-0.5,0c-0.7,0-1.3,0.3-2.1,0.7c-0.7,0.4-1.5,0.8-2.2,0.8c-0.6,0-1.3-0.3-1.9-0.6L19.2,18.3z M33.7,22.8
	c-0.1,0.2-0.2,0.3-0.4,0.3c-0.1,0.1-0.3,0.2-0.5,0.2l0,0c0,0,0,0-0.1,0c-0.1,0-0.1,0-0.3,0.1c-0.2,0.1-0.6,0.2-0.9,0.3
	c-0.7,0.3-1.6,0.9-2.1,1.9c-0.4,0.6-0.6,1.5-0.6,2.6c0,0.2,0,0.4,0,0.5c0,0.7-0.5,1.3-1.2,1.3c0,0-0.1,0-0.1,0
	c-0.7,0-1.2-0.5-1.3-1.2c0-0.2,0-0.5,0-0.7c0-1.5,0.4-2.8,0.9-3.8c0.6-1,1.4-1.8,2.1-2.3c0.3-0.2,0.5-0.3,0.8-0.5
	c-0.1,0-0.1-0.1-0.2-0.1c-0.5-0.2-1.2-0.5-2.2-0.5c-1.2,0-2.9,0.4-5.1,1.8C22.4,23,22.2,23,21.9,23c-0.4,0-0.8-0.2-1.1-0.6
	c-0.4-0.6-0.2-1.3,0.4-1.7c2.5-1.6,4.7-2.2,6.5-2.2c1,0,1.9,0.2,2.6,0.4l0.7-1.3l0.4-0.7l0.5-1.1c-0.5,0.1-1,0.1-1.6,0.1
	c0,0,0,0,0,0c-1.5,0-3.3-0.3-4.9-1.5c-0.4-0.3-0.4-0.8-0.2-1.1c0.3-0.4,0.8-0.4,1.1-0.2c1.2,0.9,2.7,1.2,3.9,1.2
	c1.5,0,2.7-0.4,2.8-0.4v0l0,0v0c0.3-0.1,0.6,0,0.8,0.2l2.9,1.6c0.1-0.1,0.2-0.1,0.3-0.2c0.4-0.3,1-0.7,1.6-1.2
	c1.2-1.1,2.3-2.7,2.3-5.2c0-0.4,0-0.8-0.1-1.2c-0.1-0.4,0.2-0.8,0.7-0.9c0.4-0.1,0.9,0.2,0.9,0.7c0.1,0.5,0.1,1,0.1,1.4
	c0,2.9-1.4,5-2.8,6.3c-1.2,1.1-2.3,1.6-2.7,1.8L37,17.6l-0.4,0.6L33.7,22.8z M45.6,19c-0.8,0-1.5-0.4-2.2-0.8
	c-0.7-0.4-1.4-0.7-2.1-0.7c-0.7,0-1.3,0.3-2.1,0.7C38.5,18.6,37.8,19,37,19c0,0-0.1,0-0.1,0l0.6-1c0.6-0.1,0.9-0.4,1.6-0.7
	c0.7-0.4,1.5-0.8,2.2-0.8c0.8,0,1.5,0.4,2.2,0.8c0.7,0.4,1.4,0.7,2.1,0.7c0.2,0,0.3,0.2,0.3,0.5C45.9,18.7,45.8,19,45.6,19z"/>
</svg>
