<svg xmlns="http://www.w3.org/2000/svg" viewBox="0 0 49 49"><defs><style>.cls-1{fill:#fff;}.cls-2{fill:#f4426d;}</style></defs><title>Fichier 1</title><g id="Calque_2" data-name="Calque 2"><g id="Calque_1-2" data-name="Calque 1"><g id="Group-5"><circle id="Oval" class="cls-1" cx="24.5" cy="24.5" r="24.5"/><g id="Group"><path id="Shape" d="M31.34,40.22h0Z"/><path id="Shape-2" data-name="Shape" d="M15.23,17.08c-.09.09-.17.18-.26.26.21-.2.42-.38.64-.56Z"/><path id="Shape-3" data-name="Shape" d="M31.08,14.39a2.18,2.18,0,0,0,.22-.21,3.64,3.64,0,0,1-2.45,1A3.54,3.54,0,0,0,31.08,14.39Z"/><path id="Shape-4" data-name="Shape" d="M31.55,21.75h0Z"/><path id="Shape-5" data-name="Shape" d="M30.06,21.74l-.22,0Z"/><path id="Shape-6" data-name="Shape" d="M32.64,17.89l0,0,.35-.16Z"/><path id="Shape-7" data-name="Shape" d="M32.07,21.7h0Z"/><path id="Shape-8" data-name="Shape" d="M27.76,17.28a.56.56,0,0,0-.27-.13l.24.13Z"/><path id="Shape-9" data-name="Shape" d="M35.55,20.36l-.08.05Z"/><path id="Shape-10" data-name="Shape" d="M13.73,18.73c.07-.09.14-.19.22-.28C13.87,18.54,13.8,18.64,13.73,18.73Z"/><path id="Shape-11" data-name="Shape" d="M31.52,40.22h0Z"/><path id="Shape-12" data-name="Shape" d="M32.64,39.83l.11-.13a1.9,1.9,0,0,1-.89.46A2.16,2.16,0,0,0,32.64,39.83Z"/><path id="Shape-13" data-name="Shape" d="M26.06,28.52l-.39-.25.39.25Z"/><path id="Shape-14" data-name="Shape" d="M28.85,21.55l-.61-.16Z"/><path id="Shape-15" data-name="Shape" d="M29.48,21.67l-.31-.06Z"/><path id="Shape-16" data-name="Shape" d="M31.16,40.21h0Z"/><path id="Shape-17" data-name="Shape" d="M31.72,40.2h0Z"/><path id="Shape-18" data-name="Shape" d="M26.21,16.41A9.86,9.86,0,0,0,19.3,15v0A9.75,9.75,0,0,1,26.21,16.41Z"/><path id="Shape-19" data-name="Shape" d="M35.68,15.31l-.13.09a1.1,1.1,0,0,0-.2.27A1.91,1.91,0,0,1,35.68,15.31Z"/><path id="Shape-20" data-name="Shape" d="M29.8,39.22a1.73,1.73,0,0,0,1.23,1A1.76,1.76,0,0,1,29.8,39.22Z"/><path id="Shape-21" data-name="Shape" d="M26.54,8.84l-.14.1a3,3,0,0,0-.28.33A3.42,3.42,0,0,1,26.54,8.84Z"/><path id="Shape-22" data-name="Shape" d="M36.43,19.71l.1-.1-.18.16Z"/><path id="Shape-23" data-name="Shape" d="M36.16,19.92l-.28.21Z"/><path id="Shape-24" data-name="Shape" d="M33,17.73l.24-.13Z"/><path id="Shape-25" data-name="Shape" class="cls-2" d="M35.68,15.31a2.31,2.31,0,0,0-.33.36,6.54,6.54,0,0,1-2.07,1.93l-.25.13-.05,0a2.83,2.83,0,0,1-.36.16,5.71,5.71,0,0,1-4.88-.62l-.25-.14a14,14,0,0,0-1.28-.74A9.75,9.75,0,0,0,19.29,15a8.67,8.67,0,0,0-3.67,1.76c-.22.18-.44.37-.65.57a12.06,12.06,0,0,0-1,1.1l-.22.28c-.11.15-.22.29-.32.44-1.36,1.88,1.82,3.7,3.11,1.82,1.69-2.36,3.8-3,6.1-2.29-1.15,2.09-2.24,4.1-3.66,6.93s-4.67,5.18-7.79,3.43C8.94,27.72,7,31,9.14,32.22A9.22,9.22,0,0,0,20.86,30c.06,0,.2.07.27.07a23.25,23.25,0,0,1,5.62,3.3c.81.67,2.23,4.1,3.05,5.85a1.76,1.76,0,0,0,1.23,1h.49l.18,0h0l.14,0a2,2,0,0,0,.89-.47,1.66,1.66,0,0,0,.37-2c-.95-2-2.58-5.85-3.8-6.86-.74-.54-2-1.48-3.25-2.29l-.4-.25c-.33-.2-.65-.39-1-.55,1.15-2.16,2.3-4.24,3.52-6.33l.63.16.3.06.31.06.36,0,.23,0a8.07,8.07,0,0,0,1.39,0h.09L32,21.7h0a8.43,8.43,0,0,0,3.4-1.29l.08-.05.33-.23a2.55,2.55,0,0,0,.28-.21l.19-.14.19-.17a11.67,11.67,0,0,0,1.93-2.12C39.72,15.75,37.15,14.06,35.68,15.31Z"/><path id="Shape-26" data-name="Shape" class="cls-2" d="M28.85,15.13a3.64,3.64,0,0,0,2.45-1,3.51,3.51,0,0,0,1.14-2.61,3.58,3.58,0,0,0-5.89-2.73,3.64,3.64,0,0,0-1.29,2.73A3.55,3.55,0,0,0,28.85,15.13Z"/></g></g></g></g></svg>