<?xml version="1.0" encoding="utf-8"?>
<!-- Generator: Adobe Illustrator 22.0.1, SVG Export Plug-In . SVG Version: 6.00 Build 0)  -->
<svg version="1.1" id="Calque_1" xmlns="http://www.w3.org/2000/svg" xmlns:xlink="http://www.w3.org/1999/xlink" x="0px" y="0px"
	 viewBox="0 0 65.7 36.9" style="enable-background:new 0 0 65.7 36.9;" xml:space="preserve">
<style type="text/css">
	.st0{fill:#502F91;}
	.st1{fill:#FFFFFF;}
</style>
<g>
	<title>Oval</title>
	<desc>Created with Sketch.</desc>
</g>
<g>
	<title>Group</title>
	<desc>Created with Sketch.</desc>
</g>
<g>
	<title>Fichier 3</title>
	<g id="Calque_2_2_">
		<g id="Calque_1-2_1_">
			<circle id="Oval_1_" class="st0" cx="34.3" cy="18.5" r="17.5"/>
			<g id="noun_655147_cc_1_">
				<g id="Group_1_">
					<path id="Shape_1_" class="st1" d="M46.5,19.1c-0.7-0.1-1.4-0.3-2-0.7c-0.7-0.4-1.4-0.7-2.2-0.8c-0.8,0.1-1.6,0.3-2.2,0.8
						c-0.5,0.3-1,0.6-1.6,0.7l-0.6,1h0.2c0.8-0.1,1.6-0.3,2.2-0.8c0.6-0.4,1.3-0.6,2.1-0.7c0.7,0.1,1.4,0.3,2,0.7
						c0.7,0.4,1.4,0.7,2.2,0.8c0.2,0,0.3-0.2,0.3-0.5S46.6,19.1,46.5,19.1z"/>
					<path id="Shape-2_1_" class="st1" d="M27.9,18.6c-0.6-0.4-1.3-0.6-2-0.6c-0.8,0.1-1.6,0.3-2.2,0.8c-0.6,0.4-1.3,0.6-2.1,0.7
						c-0.5,0-1-0.2-1.4-0.4L20,19.2l-0.2,0.6c0.6,0.3,1.2,0.5,1.8,0.6c0.8-0.1,1.6-0.3,2.2-0.8c0.6-0.4,1.3-0.6,2.1-0.7
						c0.2,0,0.3,0,0.5,0L27.9,18.6z"/>
					
						<ellipse id="Oval-2_1_" transform="matrix(0.6803 -0.7329 0.7329 0.6803 2.3148 31.4321)" class="st1" cx="37.2" cy="13.1" rx="2.3" ry="2.2"/>
					<path id="Shape-3_1_" class="st1" d="M40.7,16.4c1.8-1.6,2.8-3.9,2.8-6.3c0-0.5,0-0.9-0.1-1.4c-0.1-0.4-0.5-0.7-0.9-0.7
						C42,8,41.7,8.4,41.8,8.9c0.1,0.4,0.1,0.8,0.1,1.2c0,2-0.8,3.9-2.3,5.2c-0.5,0.5-1,0.9-1.6,1.2l-0.3,0.2L34.8,15
						c-0.2-0.2-0.5-0.3-0.8-0.2l0,0c-0.9,0.3-1.8,0.4-2.8,0.4c-1.4,0-2.8-0.4-3.9-1.2c-0.4-0.3-0.9-0.2-1.1,0.2
						c-0.3,0.3-0.2,0.8,0.1,1.1c0,0,0,0,0,0c1.4,1,3.2,1.5,4.9,1.5l0,0c0.5,0,1.1,0,1.6-0.1l-0.5,1.1l-0.4,0.7l-0.7,1.3
						c-0.8-0.3-1.7-0.4-2.6-0.4c-2.3,0.1-4.6,0.8-6.5,2.2c-0.6,0.4-0.7,1.1-0.4,1.7c0,0,0,0,0,0c0.2,0.3,0.6,0.5,1,0.5
						c0.2,0,0.5-0.1,0.7-0.2c1.5-1.1,3.3-1.7,5.1-1.8c0.8,0,1.5,0.2,2.2,0.5l0.2,0.1c-0.3,0.1-0.5,0.3-0.8,0.5
						c-0.9,0.6-1.6,1.4-2.1,2.3c-0.6,1.2-1,2.5-0.9,3.8c0,0.2,0,0.5,0,0.7c0,0.7,0.6,1.2,1.3,1.2h0.1c0.7,0,1.2-0.6,1.2-1.3
						c0-0.2,0-0.4,0-0.5c0-0.9,0.2-1.8,0.6-2.6c0.5-0.8,1.2-1.5,2.1-1.9c0.3-0.1,0.6-0.3,0.9-0.3c0.1,0,0.2-0.1,0.3-0.1h0
						c0.2,0,0.3-0.1,0.5-0.2c0.2-0.1,0.3-0.2,0.4-0.3l3-4.6l0.4-0.6l0.2-0.3C39.1,17.8,39.9,17.1,40.7,16.4z"/>
				</g>
			</g>
		</g>
	</g>
</g>
</svg>
