<?xml version="1.0" encoding="UTF-8"?>
<svg width="35px" height="35px" viewBox="0 0 35 35" version="1.1" xmlns="http://www.w3.org/2000/svg" xmlns:xlink="http://www.w3.org/1999/xlink">
    <!-- Generator: Sketch 48.2 (47327) - http://www.bohemiancoding.com/sketch -->
    <title>Oval</title>
    <desc>Created with Sketch.</desc>
    <defs></defs>
    <g id="01_a_Entrainement-Copy-9" stroke="none" stroke-width="1" fill="none" fill-rule="evenodd" transform="translate(-296.000000, -862.000000)">
        <g id="Group-4" transform="translate(28.000000, 337.000000)">
            <g id="Group-11-Copy-5" transform="translate(0.000000, 501.000000)">
                <g id="Group-10">
                    <g id="Oval" transform="translate(268.000000, 24.000000)">
                        <circle fill="#F4426D" cx="17.5" cy="17.5" r="17.5"></circle>
                        <g id="noun_655147_cc" stroke-width="1" transform="translate(3.000000, 7.000000)" fill="#FFFFFF">
                            <g id="Group" fill-rule="nonzero">
                                <path d="M26.6716823,11.1087065 C26.0206065,11.1110276 25.3314224,10.7610329 24.6154513,10.386003 C23.8993791,10.015118 23.1565199,9.61903204 22.3756534,9.61637931 C21.5944838,9.61903204 20.8517256,10.0149522 20.1357545,10.386003 C19.5092419,10.7141127 19.1435379,11.0380775 18.5657472,11.1087065 L17.9335596,12.094362 C17.9821805,12.0975121 18.0307004,12.1034808 18.0796245,12.1036466 C18.8605921,12.1013254 19.6033502,11.7054053 20.3194224,11.3340229 C21.0352924,10.958993 21.7244765,10.6089982 22.3756534,10.611651 C23.0265271,10.6089982 23.7157112,10.9591588 24.4316823,11.3340229 C25.1477545,11.7052395 25.8906137,12.1013254 26.6716823,12.1036466 C26.8389747,12.1036466 26.9749314,11.8809829 26.9749314,11.6062594 C26.9749314,11.3313701 26.8389747,11.1087065 26.6716823,11.1087065 Z" id="Shape"></path>
                                <path d="M8.13409703,10.6383795 C7.26961772,10.2143536 6.60771053,10.0015605 6.14837545,10 C5.36710469,10.0026528 4.62434657,10.3985836 3.90827437,10.7696443 C3.19240433,11.1448501 2.50322022,11.4946884 1.85224549,11.4923672 C1.40838989,11.4940252 0.946541516,11.3302146 0.470844765,11.1082082 C0.384722022,11.1814919 0.307797834,11.2443302 0.243610108,11.2945676 L0,11.916484 C0.59598556,12.2175771 1.21097473,12.4853443 1.85224549,12.4871681 C2.633213,12.4848469 3.37597112,12.0889161 4.09194224,11.7175238 C4.80801444,11.3424838 5.49719856,10.9924797 6.14837545,10.9951325 C6.28279225,10.9945846 6.45338722,10.9945846 6.66016036,10.9951325 L8.13409703,10.6383795 Z" id="Shape"></path>
                                <ellipse id="Oval" transform="translate(17.377027, 5.106737) rotate(-47.131593) translate(-17.377027, -5.106737) " cx="17.3770271" cy="5.10673661" rx="2.27380654" ry="2.23005256"></ellipse>
                                <path d="M20.9100505,8.41730603 C22.2830614,7.13118966 23.693574,5.04275 23.6896318,2.10033621 C23.6896318,1.64648276 23.6563755,1.1737931 23.5862238,0.683258621 C23.5242599,0.249431034 23.1156823,-0.0530387931 22.673343,0.00773275862 C22.2311047,0.0685043103 21.9228014,0.469219828 21.9847653,0.90324569 C22.0447076,1.32388793 22.0722022,1.72252155 22.0724043,2.10033621 C22.0681588,4.53109914 20.9474513,6.17282328 19.7891408,7.27384914 C19.2110469,7.8192069 18.6266859,8.21536207 18.1926354,8.47093966 C18.0669892,8.54499569 17.9558989,8.60596552 17.8593646,8.65682328 L14.9500939,7.02511207 C14.736,6.8359569 14.425574,6.76537069 14.1352635,6.8675819 L14.1352635,6.86748276 L14.1340505,6.86778017 L14.1340505,6.86797845 C14.0841155,6.8864181 12.8650542,7.29337931 11.3406209,7.29129741 C10.0809242,7.29060345 8.64322022,7.02203879 7.40050542,6.10689655 C7.04287365,5.8440819 6.53624549,5.91506466 6.26827437,6.26581466 C6.00040433,6.61606897 6.07277978,7.11324569 6.43020939,7.37596121 C8.0392491,8.55847845 9.85237545,8.87730603 11.335769,8.87740517 C11.3374874,8.87740517 11.3390036,8.87740517 11.3406209,8.87740517 C11.9340794,8.87661207 12.4796245,8.82684483 12.9503682,8.75834052 L12.4016895,9.82357759 L12.0273791,10.5504569 L11.3496173,11.8664138 C10.6549747,11.6244181 9.78444765,11.4381379 8.75875812,11.4384353 C6.97858484,11.4357586 4.77022383,12.0037198 2.27195668,13.6412802 C1.69143682,14.0212759 1.53465704,14.7906853 1.92170397,15.3600345 C2.165213,15.7181207 2.56590614,15.9117371 2.97418051,15.9118362 C3.21516245,15.9118362 3.45867148,15.8443233 3.67418051,15.7034483 C5.84089531,14.2901379 7.52049097,13.9198578 8.75875812,13.9169828 C9.75048375,13.9176767 10.4825271,14.1606638 10.9678267,14.39225 C11.0437401,14.4284353 11.1125776,14.4644224 11.1756534,14.4991207 C10.9242599,14.6334526 10.6636679,14.7889009 10.4002455,14.9697284 C9.64667148,15.489806 8.87257762,16.2295733 8.29428159,17.2490086 C7.71446931,18.2667586 7.34632491,19.5536681 7.34844765,21.0885216 C7.34844765,21.3172328 7.35633213,21.5525862 7.37280866,21.7942845 C7.41758845,22.4487931 7.97324188,22.9505302 8.63240433,22.9506293 C8.66090975,22.9506293 8.68951625,22.9496379 8.71852708,22.9477543 C9.414787,22.9016552 9.9414296,22.3107931 9.89452708,21.6281293 C9.88138628,21.4411552 9.87572563,21.2617155 9.87552347,21.0886207 C9.87764621,19.9304914 10.1386426,19.0995172 10.5024404,18.4548233 C11.0462671,17.494375 11.8753502,16.9125345 12.6052708,16.5630733 C12.9673502,16.3899784 13.2974874,16.2798362 13.5269458,16.2155948 C13.641574,16.183375 13.7312347,16.1627543 13.7867292,16.151056 C13.8146282,16.1451078 13.8340361,16.1413405 13.8438412,16.1398534 L13.8437401,16.139556 C14.0286209,16.1106078 14.1968231,16.0426983 14.3431913,15.9473276 C14.4965343,15.8924052 14.6334007,15.7848405 14.7223538,15.6321681 L17.7025848,11.0835216 L18.0793213,10.5087198 L18.2581372,10.2357931 C18.6306282,10.0648793 19.7591191,9.49989224 20.9100505,8.41730603 Z" id="Shape"></path>
                            </g>
                        </g>
                    </g>
                </g>
            </g>
        </g>
    </g>
</svg>