<?xml version="1.0" encoding="UTF-8"?>
<svg width="15px" height="22px" viewBox="0 0 15 22" version="1.1" xmlns="http://www.w3.org/2000/svg" xmlns:xlink="http://www.w3.org/1999/xlink">
    <!-- Generator: Sketch 48.2 (47327) - http://www.bohemiancoding.com/sketch -->
    <title>Shape</title>
    <desc>Created with Sketch.</desc>
    <defs></defs>
    <g id="00_a_Accueil-Copy-7" stroke="none" stroke-width="1" fill="none" fill-rule="evenodd" transform="translate(-249.000000, -356.000000)">
        <g id="Group-3" transform="translate(20.000000, 269.000000)" fill="#FFFFFF" fill-rule="nonzero">
            <g id="Group-2" transform="translate(20.000000, 64.000000)">
                <path d="M211.210208,31.8107692 L209.028331,23.8846154 C208.957948,23.6723077 209.028331,23.46 209.133906,23.2830769 C209.274672,23.1061538 209.485822,23 209.696971,23 L213.497659,23 C213.814383,23 214.095916,23.2123077 214.166299,23.5307692 L215.961068,30.0415385 C214.166299,30.0415385 212.512296,30.7138462 211.210208,31.8107692 Z M223.827162,23.2830769 C223.686396,23.1061538 223.475246,23 223.264097,23 L219.463409,23 C219.146685,23 218.865153,23.2123077 218.794769,23.5307692 L217,30.0415385 C218.829961,30.0415385 220.483964,30.7138462 221.786052,31.8107692 L223.967928,23.8846154 C224.00312,23.6723077 223.967928,23.46 223.827162,23.2830769 Z M222.994625,38.4761538 C222.994625,42.0888213 220.0651,45 216.507819,45 C212.950538,45 210.021013,42.0888213 210.021013,38.4761538 C210.021013,34.8985608 212.915663,31.9523077 216.507819,31.9523077 C220.099975,31.9523077 222.994625,34.8985608 222.994625,38.4761538 Z" id="Shape"></path>
            </g>
        </g>
    </g>
</svg>