<?xml version="1.0" encoding="UTF-8"?>
<svg width="24px" height="26px" viewBox="0 0 24 26" version="1.1" xmlns="http://www.w3.org/2000/svg" xmlns:xlink="http://www.w3.org/1999/xlink">
    <!-- Generator: Sketch 48.2 (47327) - http://www.bohemiancoding.com/sketch -->
    <title>Shape</title>
    <desc>Created with Sketch.</desc>
    <defs></defs>
    <g id="01_a_Entrainement-Copy-10" stroke="none" stroke-width="1" fill="none" fill-rule="evenodd" transform="translate(-234.000000, -154.000000)">
        <g id="Group-2" transform="translate(100.000000, 109.000000)" fill="#FFFFFF" fill-rule="nonzero">
            <g id="Group-Copy" transform="translate(108.000000, 0.000000)">
                <g id="Group-11" transform="translate(9.000000, 31.000000)">
                    <g id="Group-10">
                        <path d="M39.5241863,14.0245869 L23.2782289,17.249474 C22.4622512,17.4046651 21.7998692,17.9766783 21.7998692,18.8745116 L21.7998692,31.9576891 C21.5406763,31.9040628 21.2750835,31.8748121 20.999891,31.8748121 C18.7903512,31.8748121 17,33.6932292 17,35.9374061 C17,38.181583 18.7903512,40 20.999891,40 C23.2094308,40 24.999782,38.181583 24.999782,35.9374061 L24.999782,24.3687636 L37.7994333,21.8865187 L37.7994333,28.9196813 C37.5402404,28.8693052 37.2746476,28.8400545 36.9994551,28.8400545 C34.7899153,28.8400545 32.9995641,30.6584715 32.9995641,32.9026484 C32.9995641,35.1468253 34.7899153,36.9652423 36.9994551,36.9652423 C39.2089949,36.9652423 40.9993461,35.1468253 40.9993461,32.9026484 L40.9993461,15.6244364 C41.0241454,14.482035 40.3401641,13.8661458 39.5241863,14.0245869 Z" id="Shape"></path>
                    </g>
                </g>
            </g>
        </g>
    </g>
</svg>