<?xml version="1.0" encoding="UTF-8"?>
<svg width="49px" height="49px" viewBox="0 0 49 49" version="1.1" xmlns="http://www.w3.org/2000/svg" xmlns:xlink="http://www.w3.org/1999/xlink">
    <!-- Generator: Sketch 48.2 (47327) - http://www.bohemiancoding.com/sketch -->
    <title>Group 2</title>
    <desc>Created with Sketch.</desc>
    <defs></defs>
    <g id="01_a_Entrainement-Copy-6" stroke="none" stroke-width="1" fill="none" fill-rule="evenodd" transform="translate(-48.000000, -504.000000)">
        <g id="Group-11-Copy-6" transform="translate(28.000000, 487.000000)">
            <g id="Group-10">
                <g id="Group-2" transform="translate(20.000000, 17.000000)">
                    <circle id="Oval" fill="#FFFFFF" cx="24.5" cy="24.5" r="24.5"></circle>
                    <g id="noun_655147_cc" transform="translate(4.260870, 9.586957)" fill="#57C9D7" fill-rule="nonzero">
                        <g id="Group">
                            <path d="M36.8292554,15.4345922 C35.9302256,15.4378172 34.9785744,14.9515296 33.9899347,14.4304578 C33.0011555,13.915145 31.9753877,13.3648177 30.8971382,13.3611319 C29.8184699,13.3648177 28.7928418,13.9149147 27.8042021,14.4304578 C26.93909,14.8863381 26.4341123,15.3364593 25.6362774,15.4345922 L24.763329,16.8040757 C24.8304666,16.8084526 24.8974647,16.8167455 24.965021,16.8169758 C26.0434101,16.8137508 27.0690383,16.2636538 28.0578175,15.7476499 C29.0463176,15.2265781 29.9979688,14.7402905 30.8971382,14.7439763 C31.7958888,14.7402905 32.74754,15.2268085 33.7361797,15.7476499 C34.7249589,16.2634234 35.7507267,16.8137508 36.8292554,16.8169758 C37.060259,16.8169758 37.247993,16.5076039 37.247993,16.1258992 C37.247993,15.7439642 37.060259,15.4345922 36.8292554,15.4345922 Z" id="Shape"></path>
                            <path d="M11.2318651,14.7811133 C10.0381597,14.1919658 9.12417355,13.896308 8.48990652,13.8941399 C7.41109867,13.8978257 6.38547051,14.4479375 5.39669126,14.9634945 C4.40819117,15.4848106 3.45653999,15.9708808 2.55764977,15.9676557 C1.94475738,15.9699594 1.30701989,15.7423587 0.650160042,15.4338999 C0.53123854,15.5357213 0.425018748,15.6230296 0.336385939,15.6928302 L0,16.5569295 C0.822959126,16.9752725 1.67215915,17.347312 2.55764977,17.349846 C3.63603888,17.3466209 4.66166704,16.7965092 5.65030671,16.2804915 C6.63908596,15.7594057 7.59073714,15.2731051 8.48990652,15.2767909 C8.67551426,15.2760296 8.91107817,15.2760296 9.19659825,15.2767909 L11.2318651,14.7811133 Z" id="Shape"></path>
                            <ellipse id="Oval" transform="translate(23.994848, 7.095371) rotate(-47.131593) translate(-23.994848, -7.095371) " cx="23.9948482" cy="7.09537129" rx="3.13975701" ry="3.09846623"></ellipse>
                            <path d="M28.873379,11.6951228 C30.7692836,9.90817466 32.7169722,7.00646739 32.7115286,2.91823651 C32.7115286,2.28764618 32.665607,1.63088456 32.568739,0.949329085 C32.483177,0.346562969 31.9189977,-0.0736928411 31.308199,0.010744003 C30.6975399,0.0951808471 30.2718233,0.651940592 30.3573853,1.2549822 C30.4401558,1.83942841 30.4781213,2.39329554 30.4784005,2.91823651 C30.4725382,6.29557253 28.9250233,8.57660701 27.3255849,10.1063877 C26.5273313,10.8641154 25.7204238,11.414539 25.1210706,11.7696421 C24.9475736,11.8725365 24.794176,11.9572489 24.6608779,12.0279114 L20.6436481,9.76078898 C20.3480193,9.49797414 19.9193715,9.39990067 19.5185,9.54191436 L19.5185,9.54177661 L19.516825,9.54218984 L19.516825,9.54246533 C19.4478729,9.56808564 17.7645474,10.1335232 15.6595531,10.1306306 C13.9201167,10.1296664 11.9348814,9.75651893 10.2188944,8.4850075 C9.72506305,8.11984914 9.02549196,8.21847358 8.65546742,8.70581053 C8.28558247,9.19245877 8.3855212,9.88324307 8.87907335,10.2482637 C11.1008955,11.8912697 13.6045281,12.3342532 15.6528533,12.3343909 C15.6552261,12.3343909 15.6573198,12.3343909 15.6595531,12.3343909 C16.4790227,12.333289 17.2323318,12.2641417 17.8823523,12.1689608 L17.1247162,13.6490161 L16.6078543,14.6589524 L15.6719756,16.4873613 C14.7127872,16.1511291 13.5107309,15.8923088 12.0944204,15.8927221 C9.63629066,15.889003 6.58690327,16.6781362 3.13720266,18.9533855 C2.33559916,19.4813568 2.11911177,20.5503851 2.65356064,21.3414468 C2.989807,21.8389768 3.54309905,22.1079901 4.10685955,22.1081278 C4.43961643,22.1081278 4.77586279,22.0143244 5.07344571,21.8185907 C8.06532645,19.8549175 10.3845749,19.3404451 12.0944204,19.3364505 C13.4638322,19.3374147 14.474665,19.6750244 15.1447849,19.9967935 C15.2496089,20.0470699 15.3446623,20.0970708 15.4317598,20.1452811 C15.0846262,20.3319237 14.724791,20.5479057 14.3610475,20.7991501 C13.3204844,21.5217532 12.2515866,22.5495961 11.4530539,23.9660139 C10.6524274,25.38009 10.1440799,27.16814 10.1470111,29.3006868 C10.1470111,29.6184614 10.1578982,29.9454648 10.1806496,30.2812837 C10.2424832,31.1906672 11.0097503,31.8877877 11.9199464,31.8879254 C11.9593077,31.8879254 11.9988087,31.886548 12.0388679,31.8839308 C13.0002896,31.8198801 13.7274974,30.998928 13.6627326,30.0504254 C13.6445873,29.7906409 13.6367709,29.541325 13.6364917,29.3008246 C13.6394229,27.6917035 13.9998165,26.5371364 14.5021621,25.6413896 C15.2530984,24.3069293 16.3979272,23.498512 17.4058288,23.0129657 C17.9058016,22.7724653 18.3616673,22.6194322 18.6785122,22.5301743 C18.836795,22.4854076 18.9606018,22.4567569 19.0372308,22.4405032 C19.0757547,22.4322386 19.1025539,22.4270043 19.1160931,22.4249382 L19.1159535,22.4245249 C19.3712439,22.3843038 19.6035037,22.2899494 19.8056144,22.15744 C20.0173561,22.0811301 20.2063464,21.9316782 20.3291761,21.719553 L24.4443905,15.3995999 L24.9646023,14.6009623 L25.2115179,14.2217541 C25.7258674,13.9842841 27.2841299,13.1992832 28.873379,11.6951228 Z" id="Shape"></path>
                        </g>
                    </g>
                </g>
            </g>
        </g>
    </g>
</svg>