<?xml version="1.0" encoding="UTF-8"?>
<svg width="22px" height="35px" viewBox="0 0 22 35" version="1.1" xmlns="http://www.w3.org/2000/svg" xmlns:xlink="http://www.w3.org/1999/xlink">
    <!-- Generator: Sketch 48.2 (47327) - http://www.bohemiancoding.com/sketch -->
    <title>Group</title>
    <desc>Created with Sketch.</desc>
    <defs></defs>
    <g id="00_a_Accueil-Copy-6" stroke="none" stroke-width="1" fill="none" fill-rule="evenodd" transform="translate(-78.000000, -499.000000)">
        <g id="Group-11-Copy" transform="translate(58.000000, 485.000000)" fill="#FFFFFF" fill-rule="nonzero">
            <g id="Group-10">
                <g id="Group" transform="translate(20.000000, 14.000000)">
                    <path d="M3.05555556,22.4482759 C3.42222222,22.9310345 4.03333333,23.2931034 4.64444444,23.2931034 C5.01111111,23.2931034 5.37777778,23.1724138 5.62222222,23.0517241 C6.47777778,22.4482759 6.72222222,21.362069 6.11111111,20.5172414 C5.74444444,20.0344828 5.5,19.4310345 5.37777778,18.9482759 C5.13333333,18.2241379 5.13333333,17.0172414 5.25555556,15.5689655 C6.23333333,16.5344828 7.21111111,17.0172414 7.45555556,17.137931 C8.06666667,17.5 8.8,17.5 9.41111111,17.137931 C10.0222222,16.7758621 10.3888889,16.1724138 10.2666667,15.4482759 C10.2666667,15.3275862 10.0222222,10.5 11.8555556,6.87931034 C12.1,10.7413793 13.6888889,13.1551724 14.9111111,15.0862069 C15.7666667,16.4137931 16.2555556,17.137931 16.2555556,17.9827586 C16.2555556,18.3448276 16.2555556,18.7068966 16.1333333,18.9482759 C16.0111111,19.4310345 15.8888889,19.9137931 15.6444444,20.3965517 C15.1555556,21.2413793 15.5222222,22.3275862 16.3777778,22.8103448 C17.2333333,23.2931034 18.3333333,22.9310345 18.8222222,22.0862069 C19.3111111,21.2413793 19.5555556,20.3965517 19.8,19.5517241 C19.9222222,18.9482759 19.9222222,18.4655172 19.9222222,17.862069 C19.9222222,15.9310345 18.9444444,14.362069 17.9666667,13.0344828 C16.3777778,10.862069 14.6666667,8.20689655 15.7666667,2.4137931 C15.8888889,1.68965517 15.6444444,1.0862069 15.0333333,0.603448276 C14.4222222,0.24137931 13.6888889,0.120689655 13.0777778,0.482758621 C8.55555556,2.89655172 7.08888889,8.0862069 6.72222222,11.8275862 C6.35555556,11.4655172 6.11111111,10.9827586 5.98888889,10.6206897 C5.74444444,9.89655172 5.01111111,9.29310345 4.15555556,9.29310345 C3.3,9.29310345 2.56666667,9.89655172 2.44444444,10.6206897 C2.32222222,11.2241379 0.855555556,16.7758621 1.95555556,20.0344828 C2.2,20.8793103 2.56666667,21.6034483 3.05555556,22.4482759 Z" id="Shape"></path>
                    <path d="M21.0222222,25.3448276 C20.6555556,24.862069 20.1666667,24.6206897 19.5555556,24.6206897 L2.44444444,24.6206897 C1.83333333,24.6206897 1.34444444,24.862069 0.977777778,25.3448276 C0.611111111,25.8275862 0.488888889,26.4310345 0.733333333,26.9137931 L2.68888889,32.9482759 C2.93333333,33.6724138 3.66666667,34.2758621 4.4,34.2758621 L5.62222222,34.2758621 L16.6222222,34.2758621 L17.8444444,34.2758621 C18.7,34.2758621 19.3111111,33.7931034 19.5555556,32.9482759 L21.5111111,26.9137931 C21.5111111,26.3103448 21.3888889,25.7068966 21.0222222,25.3448276 Z" id="Shape"></path>
                </g>
            </g>
        </g>
    </g>
</svg>