<?xml version="1.0" encoding="UTF-8"?>
<svg width="22px" height="32px" viewBox="0 0 22 32" version="1.1" xmlns="http://www.w3.org/2000/svg" xmlns:xlink="http://www.w3.org/1999/xlink">
    <!-- Generator: Sketch 48.2 (47327) - http://www.bohemiancoding.com/sketch -->
    <title>noun_1182565_cc</title>
    <desc>Created with Sketch.</desc>
    <defs></defs>
    <g id="02_b_Stade_non_connecte-Copy-4" stroke="none" stroke-width="1" fill="none" fill-rule="evenodd" transform="translate(-51.000000, -206.000000)">
        <g id="noun_1182565_cc" transform="translate(51.000000, 206.000000)" fill="#FFFFFF" fill-rule="nonzero">
            <path d="M10.7756825,0.00224561042 C4.80404774,0.125029589 0,5.13206159 0,11.2907627 C0,20.0566456 8.49561169,30.1249389 10.5536173,31.8382399 C10.8146707,32.0555803 11.185352,32.0530843 11.4463639,31.8357226 C13.482189,30.1403451 21.7754635,20.2539967 21.9961984,11.640544 C22.1600323,5.24610245 17.0065104,-0.125878811 10.7756825,0.00224561042 Z M10.9999889,15.3257238 C8.82867648,15.3257238 7.0684955,13.519061 7.0684955,11.2904178 C7.0684955,9.06179244 8.82867995,7.25513321 10.9999889,7.25513321 C13.1712978,7.25513321 14.9314822,9.061796 14.9314822,11.2904178 C14.9314822,13.519061 13.1713013,15.3257238 10.9999889,15.3257238 Z" id="Shape"></path>
        </g>
    </g>
</svg>