<?xml version="1.0" encoding="UTF-8"?>
<svg width="28px" height="28px" viewBox="0 0 28 28" version="1.1" xmlns="http://www.w3.org/2000/svg" xmlns:xlink="http://www.w3.org/1999/xlink">
    <!-- Generator: Sketch 48.2 (47327) - http://www.bohemiancoding.com/sketch -->
    <title>Shape</title>
    <desc>Created with Sketch.</desc>
    <defs></defs>
    <g id="01_a_Entrainement-Copy-11" stroke="none" stroke-width="1" fill="none" fill-rule="evenodd" transform="translate(-252.000000, -602.000000)">
        <g id="Group-7" transform="translate(83.000000, 589.000000)" fill="#FFFFFF" fill-rule="nonzero">
            <g id="buttons-copy-2" transform="translate(156.000000, 0.000000)">
                <path d="M27,41 C19.2678,41 13,34.7322 13,27 C13,19.2678 19.2678,13 27,13 C34.7322,13 41,19.2678 41,27 C41,34.7322 34.7322,41 27,41 Z M20.21,27.6202 C20.5614,27.2856 21.0304,27.0714 21.5498,27.049 C21.8872,27.0924 22.1812,27.2366 22.4094,27.4508 C22.674,27.525 22.408,28.0332 22.856,27.7742 C22.9596,27.5376 23.0198,27.2618 23.0198,26.972 C23.0198,26.8628 23.0114,26.7564 22.9946,26.6528 C23.493,25.6602 24.2098,24.8328 25.089,24.2196 C25.3718,24.1216 25.6966,24.0418 26.0298,23.983 C26.23,23.9228 26.398,23.5812 26.58,23.5014 C27.448,23.1276 27.462,23.9326 27.336,22.702 C27.196,21.3748 26.314,20.5418 26.706,19.1306 C26.9286,18.831 27.0616,18.453 27.0616,18.0442 C27.0616,17.7726 27.0028,17.515 26.8964,17.284 C26.6626,16.7268 26.1726,16.3152 25.9766,15.8518 C21.5498,16.2732 17.9056,19.2146 16.4678,23.2102 C16.4104,23.521 16.3908,23.7898 16.3908,24.0628 C16.3908,24.3358 16.4104,24.6046 16.4468,24.8678 C16.682,25.712 17.0222,26.4764 17.459,27.175 C17.9126,28.1424 18.7162,28.9264 19.7046,29.3674 C20.3682,29.6502 20.9114,29.9498 21.4196,30.297 C21.9992,30.4972 22.5228,30.8346 22.954,31.2644 C23.094,31.8832 22.436,32.5328 22.59,33.293 C22.9498,34.1092 23.395,34.812 23.9298,35.4364 C24.1608,35.9306 24.3008,36.5256 24.3008,37.1514 C24.3008,37.3978 24.2798,37.6386 24.2378,37.8724 C25.068,38.0684 26.0186,38.1972 26.9986,38.1986 C27.042,38.1986 27.084,38.1986 27.126,38.1986 C27.2576,38.0446 27.3864,37.8766 27.5054,37.7002 C27.7,37.1892 27.889,36.779 28.1032,36.3856 C28.4714,36.142 28.8158,35.8144 29.1196,35.4518 C29.4724,34.966 29.6796,34.371 29.6796,33.727 C29.6796,33.4162 29.6306,33.1152 29.541,32.8338 C28.9376,32.4054 28.2404,32.0176 27.4956,31.7236 C26.3686,30.9718 25.5706,29.8434 24.1566,29.9778 C23.8332,30.1416 23.444,30.3012 23.0422,30.4328 C22.4066,30.3544 22.7426,30.227 22.4206,29.9666 C22.1602,29.583 21.9124,29.142 21.7024,28.68 C21.3006,28.3986 19.3546,29.0426 20.2086,27.6188 L20.21,27.6202 Z M28.456,15.905 C28.4532,15.9512 28.4504,16.0044 28.4504,16.0576 C28.4504,16.1108 28.4518,16.1654 28.456,16.2186 C28.456,16.2326 28.456,16.2578 28.456,16.283 C28.456,17.2854 28.3902,18.2724 28.2614,19.2412 C28.33,20.294 28.834,20.5964 29.66,20.0168 C30.01,19.769 30.262,19.2524 30.626,18.9696 C31.2,18.5356 31.914,18.3676 32.502,17.949 C32.6182,17.7978 32.7092,17.6186 32.7652,17.4254 C31.5318,16.6526 30.073,16.1192 28.512,15.9106 L28.456,15.905 Z M36.492,21.0738 C36.464,21.1172 36.436,21.1522 36.408,21.1984 C36.0076,21.736 35.7654,22.4122 35.764,23.1458 C35.848,23.717 36.282,23.4034 36.226,23.92 C36.002,26.1964 34.77,23.1304 34.7,23.1094 C34.6118,23.185 34.5026,23.2396 34.3822,23.262 C34.2058,23.388 34.0924,23.5854 34.084,23.8108 C34.1246,23.8402 34.1512,23.8878 34.1512,23.941 C34.1512,23.9998 34.119,24.0516 34.0714,24.0782 C33.23,24.571 34,25.1002 34.266,25.2906 C34.3402,25.3228 34.4256,25.3438 34.5166,25.348 C35.106,25.88 34.546,26.167 34.336,26.559 C34.0966,27.007 33.9244,27.5306 33.8488,28.0836 C33.65,29.0398 32.796,29.6768 32.53,30.6134 C32.4768,30.7982 32.4474,31.0096 32.4474,31.2294 C32.4474,32.3228 33.2048,33.2398 34.2226,33.4848 C35.036,33.6752 35.568,33.5898 35.96,33.6976 C37.3586,31.8566 38.2,29.527 38.2,27 C38.2,24.8034 37.563,22.7552 36.4654,21.029 L36.492,21.0738 Z" id="Shape"></path>
            </g>
        </g>
    </g>
</svg>