<?xml version="1.0" encoding="UTF-8"?>
<svg width="23px" height="29px" viewBox="0 0 23 29" version="1.1" xmlns="http://www.w3.org/2000/svg" xmlns:xlink="http://www.w3.org/1999/xlink">
    <!-- Generator: Sketch 48.2 (47327) - http://www.bohemiancoding.com/sketch -->
    <title>Triangle</title>
    <desc>Created with Sketch.</desc>
    <defs></defs>
    <g id="00_a_Accueil-Copy-6" stroke="none" stroke-width="1" fill="none" fill-rule="evenodd" transform="translate(-83.000000, -420.000000)">
        <path d="M104.207717,436.565913 C100.414626,439.699058 97.8931374,441.695279 96.6432509,442.554576 C95.4435298,443.379385 92.4028751,445.227801 87.5212866,448.099827 L87.521294,448.099839 C86.0932519,448.940011 84.2545013,448.463448 83.4143296,447.035406 C83.1430594,446.574327 83.0000138,446.049099 83.0000138,445.51414 L83,423.000014 C83,421.343152 84.3431519,420 86.0000138,420 C86.5391958,420 87.0684125,420.145312 87.5319928,420.420649 C92.200043,423.193174 95.237129,425.062791 96.6432509,426.0295 C98.1057467,427.034966 100.624319,429.002725 104.198968,431.932779 L104.198963,431.932785 C105.480355,432.983111 105.667671,434.873342 104.617345,436.154735 C104.494413,436.304711 104.357228,436.442415 104.207717,436.565913 Z" id="Triangle" fill="#FFFFFF"></path>
    </g>
</svg>