<?xml version="1.0" encoding="utf-8"?>
<!-- Generator: Adobe Illustrator 22.0.1, SVG Export Plug-In . SVG Version: 6.00 Build 0)  -->
<svg version="1.1" id="Calque_1" xmlns="http://www.w3.org/2000/svg" xmlns:xlink="http://www.w3.org/1999/xlink" x="0px" y="0px"
	 viewBox="0 0 172 169" style="enable-background:new 0 0 172 169;" xml:space="preserve">
<style type="text/css">
	.st0{fill:#B42649;}
	.st1{fill:#FFF1CC;}
	.st2{filter:url(#Adobe_OpacityMaskFilter);}
	.st3{fill:#FFFFFF;}
</style>
<title>Group</title>
<desc>Created with Sketch.</desc>
<path id="Oval-8" class="st0" d="M86.5,169c19.9,0,42.7-7.8,57.3-18.5c19.6-14.4,27.8-35.4,27.8-62.1c0-22-6.6-45-23-61.8
	c-16-16.3-39.4-26.5-64.1-26.5C57,0.1,31.4,10.8,16,31.1C5.2,45.3,0.9,65.4,0.9,84.5c0,29.3,13.9,54.7,36.8,69.9
	C51.3,163.4,69.1,169,86.5,169z"/>
<path id="path-1_1_" class="st1" d="M86.2,162.4c19.9,0,38.9-7,53.5-17.8c19.6-14.4,25.8-34.1,25.8-60.9c0-22-5.3-38.3-21.7-55.1
	c-16-16.3-32.9-23.5-57.5-23.5c-27.5,0-48.5,12.1-63.9,32.5C11.6,51.8,7.2,71.4,7.2,90.6c0,29.3,11.8,44.7,34.8,59.9
	C55.7,159.5,68.8,162.4,86.2,162.4z"/>
<defs>
	<filter id="Adobe_OpacityMaskFilter" filterUnits="userSpaceOnUse" x="3.1" y="-4" width="163.7" height="198">
		<feColorMatrix  type="matrix" values="1 0 0 0 0  0 1 0 0 0  0 0 1 0 0  0 0 0 1 0"/>
	</filter>
</defs>
<mask maskUnits="userSpaceOnUse" x="3.1" y="-4" width="163.7" height="198" id="mask-2_2_">
	<g class="st2">
		<path id="path-1_3_" class="st3" d="M86.2,162.4c19.9,0,38.9-7,53.5-17.8c19.6-14.4,25.8-34.1,25.8-60.9c0-22-5.3-38.3-21.7-55.1
			c-16-16.3-32.9-23.5-57.5-23.5c-27.5,0-48.5,12.1-63.9,32.5C11.6,51.8,7.2,71.4,7.2,90.6c0,29.3,11.8,44.7,34.8,59.9
			C55.7,159.5,68.8,162.4,86.2,162.4z"/>
	</g>
</mask>
<g style="mask:url(#mask-2_2_);enable-background:new    ;">
	
		<image style="overflow:visible;" width="363" height="439" id="Capture-d_x2019_écran-2018-01-25-à-10.25.37" xlink:href="63E64D47120D07D2.png"  transform="matrix(0.451 0 0 0.451 3.1389 -4)">
	</image>
</g>
</svg>
