<svg xmlns="http://www.w3.org/2000/svg" viewBox="0 0 133.95 134"><defs><style>.cls-1{fill:#2d1862;}</style></defs><title>Fichier 2</title><g id="Calque_2" data-name="Calque 2"><g id="Calque_1-2" data-name="Calque 1"><path class="cls-1" d="M87.5,126.5l5-5,5,5-.36.36a67.39,67.39,0,0,0,22.48-18.34l-2-2,5-5,1.17,1.17a66.69,66.69,0,0,0,6.56-13.54L127.5,86.5l4.82-4.82A67,67,0,0,0,132,51L127.5,46.5l2.42-2.42a66.64,66.64,0,0,0-6.69-13.41l-.78.78-5-4.95,1.58-1.58A67.21,67.21,0,0,0,96.85,7.05l-4.4,4.4-5-4.95L90,4.05A67.22,67.22,0,0,0,52.48,1.58L57.4,6.5l-4.95,4.95-5-4.95,4.9-4.9A66.41,66.41,0,0,0,36.65,7.25l-4.2,4.2-1.16-1.16A66.93,66.93,0,0,0,0,64l2.42-2.42,5,5-4.95,5L0,69a66.92,66.92,0,0,0,30.68,54.32l1.77-1.77,4.95,5-.42.42a67,67,0,0,0,53.69,2.75Zm35-64.95,5,5-5,5-5-5Zm-10-20,5,5-5,5-5-5Zm0,40,5,5-5,5-5-5Zm-10-60,5,4.95-5,4.95-5-4.95Zm0,40,5,5-5,5-5-5Zm0,40,5,5-5,5-5-5Zm-10-60,5,5-5,5-5-5Zm0,40,5,5-5,5-5-5Zm-80,9.9-4.95-5,4.95-5,4.95,5Zm0-40-4.95-5,4.95-5,4.95,5Zm10,60-4.95-5,4.95-5,4.95,5Zm0-40-4.95-5,4.95-5,4.95,5Zm0-40L17.5,26.5l4.95-4.95L27.4,26.5Zm10,60-5-5,5-5,4.95,5Zm0-40-5-5,5-5,4.95,5Zm10,60-5-5,5-5,4.95,5Zm0-40-5-5,5-5,4.95,5Zm0-40-5-4.95,5-4.95L47.4,26.5Zm10,100-5-4.95,5-5,4.95,5Zm0-40-5-5,5-5,4.95,5Zm0-40-5-5,5-5,4.95,5Zm10,60-5-5,5-5,5,5Zm0-40-5-5,5-5,5,5Zm0-40-5-4.95,5-4.95,5,4.95Zm10,100-5-4.95,5-5,5,5Zm0-40-5-5,5-5,5,5Zm0-40-5-5,5-5,5,5Zm0-40-5-4.95,5-4.95,5,5Zm10,100-5-5,5-5,5,5Zm0-40-5-5,5-5,5,5Zm0-40-5-4.95,5-4.95,5,4.95Z"/></g></g></svg>