<svg xmlns="http://www.w3.org/2000/svg" xmlns:xlink="http://www.w3.org/1999/xlink" viewBox="0 0 53.62 38.55"><defs><style>.cls-1{fill:#fff;}.cls-2{fill:#ec1140;}.cls-3{mask:url(#mask);}.cls-4{fill:#9e93d1;}.cls-5{fill:#bab2e4;}.cls-6{mask:url(#mask-2);}</style><mask id="mask" x="0" y="0" width="53.62" height="38.55" maskUnits="userSpaceOnUse"><g id="mask-8"><path id="path-7" class="cls-1" d="M11.13,0H42a8,8,0,0,1,7.92,6.85l3.67,25.29a5.6,5.6,0,0,1-4.73,6.35,5.52,5.52,0,0,1-.81.06H5.6A5.6,5.6,0,0,1,0,33a5.37,5.37,0,0,1,0-.7L3.19,7A8,8,0,0,1,11.13,0Z"/></g></mask><mask id="mask-2" x="0.09" y="0" width="53.42" height="34.55" maskUnits="userSpaceOnUse"><g id="mask-12"><path id="path-11" class="cls-1" d="M11,0H42.08A8,8,0,0,1,50,6.72l3.46,21.33a5.6,5.6,0,0,1-4.63,6.42,5.47,5.47,0,0,1-.9.08H5.69A5.6,5.6,0,0,1,.09,29a6.81,6.81,0,0,1,.05-.78L3.1,6.9A8,8,0,0,1,11,0Z"/></g></mask></defs><title>Fichier 3</title><g id="Calque_2" data-name="Calque 2"><g id="Calque_1-2" data-name="Calque 1"><g id="Rectangle-2"><g id="Mask-3" data-name="Mask"><path id="path-7-2" data-name="path-7" class="cls-2" d="M11.13,0H42a8,8,0,0,1,7.92,6.85l3.67,25.29a5.6,5.6,0,0,1-4.73,6.35,5.52,5.52,0,0,1-.81.06H5.6A5.6,5.6,0,0,1,0,33a5.37,5.37,0,0,1,0-.7L3.19,7A8,8,0,0,1,11.13,0Z"/></g><g class="cls-3"><g id="Mask-Copy-2"><g id="Mask-4" data-name="Mask"><path id="path-9" class="cls-4" d="M11.13,0H42a8,8,0,0,1,7.92,6.85l3.67,25.29a5.6,5.6,0,0,1-4.73,6.35,5.52,5.52,0,0,1-.81.06H5.6A5.6,5.6,0,0,1,0,33a5.37,5.37,0,0,1,0-.7L3.19,7A8,8,0,0,1,11.13,0Z"/></g><path id="path-11-2" data-name="path-11" class="cls-5" d="M11,0H42.08A8,8,0,0,1,50,6.72l3.46,21.33a5.6,5.6,0,0,1-4.63,6.42,5.47,5.47,0,0,1-.9.08H5.69A5.6,5.6,0,0,1,.09,29a6.81,6.81,0,0,1,.05-.78L3.1,6.9A8,8,0,0,1,11,0Z"/><g class="cls-6"><g id="noun_1279584_cc" data-name="noun 1279584 cc"><g id="Shape"><path class="cls-1" d="M18.35,22.69h1.54l6,4.69a1.53,1.53,0,0,0,1.63.17,1.52,1.52,0,0,0,.86-1.38V8.83a1.55,1.55,0,0,0-.87-1.39,1.54,1.54,0,0,0-1.62.18l-6,4.69H18.36a4,4,0,0,0-4,4v2.34A4,4,0,0,0,18.35,22.69Z"/><path class="cls-1" d="M33.58,16.57a.93.93,0,0,0,0,1.86h4.67a.93.93,0,0,0,0-1.86Z"/><path class="cls-1" d="M31.81,13.54A.92.92,0,0,0,33,14l4.36-1.85a.94.94,0,0,0,.59-.75,1,1,0,0,0-.37-.87.93.93,0,0,0-.94-.09L32.3,12.32A.93.93,0,0,0,31.81,13.54Z"/><path class="cls-1" d="M37.38,22.82,33,21a.93.93,0,1,0-.72,1.71l4.36,1.85A.92.92,0,0,0,37.87,24,.93.93,0,0,0,37.38,22.82Z"/></g></g></g></g></g></g></g></g></svg>