<?xml version="1.0" encoding="UTF-8"?>
<svg width="11px" height="10px" viewBox="0 0 11 10" version="1.1" xmlns="http://www.w3.org/2000/svg" xmlns:xlink="http://www.w3.org/1999/xlink">
    <!-- Generator: Sketch 48.2 (47327) - http://www.bohemiancoding.com/sketch -->
    <title>Shape</title>
    <desc>Created with Sketch.</desc>
    <defs></defs>
    <g id="01_a_Entrainement-Copy" stroke="none" stroke-width="1" fill="none" fill-rule="evenodd" transform="translate(-82.000000, -643.000000)">
        <g id="Group-4" transform="translate(29.000000, 535.000000)" fill="#FFFFFF" fill-rule="nonzero">
            <g id="Group-2-Copy" transform="translate(38.000000, 101.000000)">
                <g id="Group-8">
                    <path d="M19.1178542,17.7157828 C18.8312306,17.67035 18.5928454,17.4643713 18.5065776,17.1866701 L17.7375687,14.712373 L15.2633661,13.9430795 C14.9856755,13.8562979 14.7799599,13.6186694 14.7342736,13.3315243 C14.6890979,13.0443792 14.811098,12.7539161 15.0482069,12.5862233 L17.1640662,11.0905166 L17.1308862,8.49983002 C17.1270578,8.20936683 17.2896395,7.93957809 17.548443,7.80812946 C17.807757,7.67617035 18.1214351,7.70297056 18.3544603,7.8765338 L20.4307589,9.42635142 L22.8847983,8.5940136 C23.1599366,8.5003405 23.466213,8.57206295 23.6719286,8.7775312 C23.8776442,8.98325468 23.9491087,9.29005323 23.8562049,9.56494678 L23.0231331,12.0190799 L24.5728916,14.0949473 C24.7467034,14.3279815 24.7740131,14.6416715 24.642059,14.9007402 C24.5098497,15.1598088 24.2400713,15.3221415 23.9496192,15.3185681 L21.3590315,15.2853869 L19.8628715,17.401327 C19.7189216,17.6052638 19.483344,17.7249714 19.237302,17.7249714 C19.197486,17.7252267 19.1576701,17.7219085 19.1178542,17.7157828 Z" id="Shape" transform="translate(19.724985, 12.724985) rotate(27.000000) translate(-19.724985, -12.724985) "></path>
                </g>
            </g>
        </g>
    </g>
</svg>