<?xml version="1.0" encoding="UTF-8" standalone="no"?>
<svg width="9px" height="13px" viewBox="0 0 9 13" version="1.1" xmlns="http://www.w3.org/2000/svg" xmlns:xlink="http://www.w3.org/1999/xlink">
    <!-- Generator: Sketch 48.2 (47327) - http://www.bohemiancoding.com/sketch -->
    <title>Shape Copy</title>
    <desc>Created with Sketch.</desc>
    <defs></defs>
    <g id="01_a_Entrainement-Copy-23" stroke="none" stroke-width="1" fill="none" fill-rule="evenodd" transform="translate(-82.000000, -641.000000)">
        <g id="Group-4" transform="translate(29.000000, 535.000000)" fill="#BCBCBC" fill-rule="nonzero">
            <g id="Group">
                <path d="M54.3278402,111.206364 L53.0170208,106.522727 C52.9747363,106.397273 53.0170208,106.271818 53.0804476,106.167273 C53.1650165,106.062727 53.29187,106 53.4187235,106 L55.7020863,106 C55.8923666,106 56.0615046,106.125455 56.1037891,106.313636 L57.1820437,110.160909 C56.1037891,110.160909 55.1101034,110.558182 54.3278402,111.206364 Z M61.9078054,106.167273 C61.8232364,106.062727 61.6963829,106 61.5695295,106 L59.2861666,106 C59.0958864,106 58.9267484,106.125455 58.8844639,106.313636 L57.8062092,110.160909 C58.9056062,110.160909 59.8992918,110.558182 60.681555,111.206364 L61.9923744,106.522727 C62.0135167,106.397273 61.9923744,106.271818 61.9078054,106.167273 Z M61.4076372,115.145 C61.4076372,117.279758 59.6476482,119 57.5105188,119 C55.3733893,119 53.6134004,117.279758 53.6134004,115.145 C53.6134004,113.030968 55.3524371,111.29 57.5105188,111.29 C59.6686005,111.29 61.4076372,113.030968 61.4076372,115.145 Z" id="Shape-Copy"></path>
            </g>
        </g>
    </g>
</svg>