<?xml version="1.0" encoding="UTF-8"?>
<svg width="28px" height="23px" viewBox="0 0 28 23" version="1.1" xmlns="http://www.w3.org/2000/svg" xmlns:xlink="http://www.w3.org/1999/xlink">
    <!-- Generator: Sketch 48.2 (47327) - http://www.bohemiancoding.com/sketch -->
    <title>noun_1279584_cc</title>
    <desc>Created with Sketch.</desc>
    <defs></defs>
    <g id="01_a_Entrainement-Copy-10" stroke="none" stroke-width="1" fill="none" fill-rule="evenodd" transform="translate(-115.000000, -155.000000)">
        <g id="Group-2" transform="translate(100.000000, 109.000000)" fill="#FFFFFF" fill-rule="nonzero">
            <g id="Group">
                <g id="Group-11" transform="translate(0.000000, 31.000000)">
                    <g id="Group-10">
                        <g id="noun_1279584_cc" transform="translate(15.000000, 15.000000)">
                            <path d="M4.48715256,17.1994159 L6.1791407,17.1994159 L12.7745105,22.3456978 C13.2842623,22.7445169 13.9767242,22.8175162 14.5583603,22.5337511 C15.1399964,22.2499861 15.5089276,21.6591609 15.5087633,21.0117273 L15.5087633,16.1498452 L15.5087633,6.87299492 L15.5087633,2.00095566 C15.5050637,1.35535421 15.1346629,0.768067466 14.5538162,0.486845274 C13.9729695,0.205623083 13.2828199,0.279434711 12.7745105,0.677142356 L6.18590866,5.82342427 L4.49392051,5.82342427 C2.06432646,5.82342427 0.0947513361,7.7940095 0.0947513361,10.2248496 L0.0947513361,12.7979905 C0.094748464,15.2261887 2.06020198,17.1956802 4.48715256,17.1994159 Z" id="Shape"></path>
                            <path d="M21.1870755,10.4957065 C20.6264,10.4957065 20.1718827,10.950457 20.1718827,11.5114201 C20.1718827,12.0723831 20.6264,12.5271336 21.1870755,12.5271336 L26.3070317,12.5271336 C26.8677072,12.5271336 27.3222246,12.0723832 27.3222246,11.5114201 C27.3222246,10.950457 26.8677072,10.4957065 26.3070317,10.4957065 L21.1870755,10.4957065 Z" id="Shape"></path>
                            <path d="M19.2379052,7.16755184 C19.4568875,7.6833135 20.0519827,7.9242007 20.5678079,7.70588002 L25.3493664,5.67445295 C25.6973014,5.54254293 25.9452348,5.23076648 25.9955201,4.86191414 C26.0458054,4.49306179 25.8903845,4.12624006 25.5904689,3.9059186 C25.2905532,3.68559714 24.8942024,3.64708124 24.5575159,3.80554004 L19.7759574,5.83696711 C19.2604602,6.05606168 19.0196964,6.65146213 19.2379052,7.16755184 Z" id="Shape"></path>
                            <path d="M25.3527504,17.3483872 L20.5711919,15.3169601 C20.2345054,15.1585013 19.8381546,15.1970172 19.5382389,15.4173387 C19.2383232,15.6376601 19.0829024,16.0044818 19.1331877,16.3733342 C19.183473,16.7421865 19.4314064,17.053963 19.7793414,17.185873 L24.5608999,19.2173001 C25.0767251,19.4356208 25.6718203,19.1947336 25.8908026,18.6789719 C26.1090114,18.1628822 25.8682476,17.5674817 25.3527504,17.3483872 Z" id="Shape"></path>
                        </g>
                    </g>
                </g>
            </g>
        </g>
    </g>
</svg>