<svg xmlns="http://www.w3.org/2000/svg" viewBox="0 0 73.71 53"><defs><style>.cls-1{fill:#ec1140;}.cls-2{fill:#9e93d1;}.cls-3{fill:#bab2e4;}.cls-4{fill:#fff;}</style></defs><title>Fichier 4</title><g id="Calque_2" data-name="Calque 2"><g id="Calque_1-2" data-name="Calque 1"><g id="Rectangle"><g id="Mask"><path id="path-1" class="cls-1" d="M7.2,0H66.51a7.2,7.2,0,0,1,7.2,7.2,7.85,7.85,0,0,1-.08,1.08L67.8,46.88A7.2,7.2,0,0,1,60.68,53H13a7.2,7.2,0,0,1-7.12-6.12L.08,8.28A7.2,7.2,0,0,1,6.13.08,7.59,7.59,0,0,1,7.2,0Z"/></g><g id="Mask-Copy-8"><path id="path-3" class="cls-2" d="M7.2,0H66.51a7.2,7.2,0,0,1,7.2,7.2,7.85,7.85,0,0,1-.08,1.08L67.8,46.88A7.2,7.2,0,0,1,60.68,53H13a7.2,7.2,0,0,1-7.12-6.12L.08,8.28A7.2,7.2,0,0,1,6.13.08,7.59,7.59,0,0,1,7.2,0Z"/></g><g id="Mask-Copy-9"><path id="path-5" class="cls-3" d="M7.3,0H66.41a7.2,7.2,0,0,1,7.2,7.2,6.41,6.41,0,0,1-.1,1.16L67.86,43a7.2,7.2,0,0,1-7.1,6H13a7.21,7.21,0,0,1-7.11-6L.2,8.36A7.21,7.21,0,0,1,6.14.09,7.55,7.55,0,0,1,7.3,0Z"/></g></g><path id="Combined-Shape" class="cls-4" d="M30,19.09V16a4,4,0,0,1,4-4H39.7a4,4,0,0,1,4,4v7h8.13a4,4,0,0,1,4,4v7a4,4,0,0,1-4,4h-30a4,4,0,0,1-4-4V23.09a4,4,0,0,1,4-4ZM38,16a.17.17,0,0,0-.17-.17h-.43a.51.51,0,0,0-.31.11L35.24,17.3a.18.18,0,0,0-.05.24l.4.66a.2.2,0,0,0,.24.06l.74-.35v4.16a.17.17,0,0,0,.17.17h1.13a.16.16,0,0,0,.17-.17ZM23.18,24.05a.18.18,0,0,0,.24,0,2.22,2.22,0,0,1,1.26-.66c.47,0,.62.28.62.53a1.06,1.06,0,0,1-.2.59c-.06.1-.27.4-2.45,3.39a.6.6,0,0,0-.1.31v.17a.18.18,0,0,0,.17.17h3.71a.18.18,0,0,0,.18-.17v-1a.18.18,0,0,0-.18-.17H24.84c1.19-1.63,1.4-1.92,1.52-2.12a2.39,2.39,0,0,0,.38-1.22c0-1.21-.93-1.79-2.06-1.79a3.19,3.19,0,0,0-2.17,1,.16.16,0,0,0,0,.24Zm27.88,3.08a1.94,1.94,0,0,0-2.2-1.94A3.08,3.08,0,0,0,46.8,26a.16.16,0,0,0,0,.24l.62.72a.18.18,0,0,0,.25,0,2.34,2.34,0,0,1,1.2-.51.69.69,0,0,1,.77.66.73.73,0,0,1-.77.73h-.72A.16.16,0,0,0,48,28V29a.16.16,0,0,0,.17.17h.72a.72.72,0,0,1,.77.72.69.69,0,0,1-.77.67A2.33,2.33,0,0,1,47.64,30a.16.16,0,0,0-.24,0l-.62.72a.17.17,0,0,0,0,.25,3.11,3.11,0,0,0,2.07.82,1.94,1.94,0,0,0,2.2-1.94,1.53,1.53,0,0,0-.72-1.36A1.57,1.57,0,0,0,51.06,27.13Z"/></g></g></svg>