<svg xmlns="http://www.w3.org/2000/svg" viewBox="0 0 66.4 48"><defs><style>.cls-1{fill:#ec1140;}.cls-2{fill:#10b2c0;}.cls-3{fill:#2ad4e2;}.cls-4{fill:#fff;}</style></defs><title>Fichier 5</title><g id="Calque_2" data-name="Calque 2"><g id="Calque_1-2" data-name="Calque 1"><g id="Rectangle"><g id="Mask"><path id="path-1" class="cls-1" d="M6.48,0H59.92A6.48,6.48,0,0,1,66.4,6.48a7.75,7.75,0,0,1-.07,1l-5.27,35A6.48,6.48,0,0,1,54.66,48H11.74a6.48,6.48,0,0,1-6.4-5.52L.07,7.44A6.48,6.48,0,0,1,5.52.07,6.2,6.2,0,0,1,6.48,0Z"/></g><g id="Mask-Copy-8"><path id="path-3" class="cls-2" d="M6.48,0H59.92A6.48,6.48,0,0,1,66.4,6.48a7.75,7.75,0,0,1-.07,1l-5.27,35A6.48,6.48,0,0,1,54.66,48H11.74a6.48,6.48,0,0,1-6.4-5.52L.07,7.44A6.48,6.48,0,0,1,5.52.07,6.2,6.2,0,0,1,6.48,0Z"/></g><g id="Mask-Copy-9"><path id="path-5" class="cls-3" d="M6.57,0H59.83a6.48,6.48,0,0,1,6.48,6.48,6,6,0,0,1-.09,1l-5.1,31.42a6.49,6.49,0,0,1-6.4,5.44h-43a6.49,6.49,0,0,1-6.4-5.44L.18,7.52A6.48,6.48,0,0,1,5.53.08,7.28,7.28,0,0,1,6.57,0Z"/></g></g><path id="Combined-Shape" class="cls-4" d="M27,17.29V14.47a3.6,3.6,0,0,1,3.6-3.6h5.18a3.6,3.6,0,0,1,3.6,3.6v6.39h7.32a3.6,3.6,0,0,1,3.6,3.6v6.36a3.6,3.6,0,0,1-3.6,3.6h-27a3.6,3.6,0,0,1-3.6-3.6V20.89a3.6,3.6,0,0,1,3.6-3.6Zm7.28-2.8a.16.16,0,0,0-.16-.15h-.38a.45.45,0,0,0-.28.09l-1.7,1.24a.17.17,0,0,0-.05.22l.36.59a.18.18,0,0,0,.22.06l.66-.32V20a.15.15,0,0,0,.16.15h1a.15.15,0,0,0,.16-.15ZM20.88,21.78a.17.17,0,0,0,.22,0,1.94,1.94,0,0,1,1.14-.6c.42,0,.55.24.55.48a1,1,0,0,1-.18.53c-.05.09-.24.36-2.21,3.07a.57.57,0,0,0-.08.28v.15a.15.15,0,0,0,.15.15h3.34A.16.16,0,0,0,24,25.7v-.9a.15.15,0,0,0-.16-.15H22.38c1.07-1.49,1.26-1.74,1.37-1.93a2.19,2.19,0,0,0,.34-1.11c0-1.08-.84-1.61-1.86-1.61a2.88,2.88,0,0,0-1.95.94.16.16,0,0,0,0,.22ZM46,24.57a1.75,1.75,0,0,0-2-1.75,2.74,2.74,0,0,0-1.85.72.17.17,0,0,0,0,.23l.56.65a.15.15,0,0,0,.22,0A2.13,2.13,0,0,1,44,24a.63.63,0,0,1,.7.6.66.66,0,0,1-.7.66h-.65a.15.15,0,0,0-.15.15v.85a.16.16,0,0,0,.15.16H44a.65.65,0,0,1,.7.65.63.63,0,0,1-.7.6,2.06,2.06,0,0,1-1.09-.49.16.16,0,0,0-.22,0l-.56.65a.17.17,0,0,0,0,.23,2.77,2.77,0,0,0,1.86.74A1.75,1.75,0,0,0,46,27a1.41,1.41,0,0,0-.64-1.24A1.44,1.44,0,0,0,46,24.57Z"/></g></g></svg>