<?xml version="1.0" encoding="utf-8"?>
<!-- Generator: Adobe Illustrator 22.0.1, SVG Export Plug-In . SVG Version: 6.00 Build 0)  -->
<svg version="1.1" id="Calque_1" xmlns="http://www.w3.org/2000/svg" xmlns:xlink="http://www.w3.org/1999/xlink" x="0px" y="0px"
	 viewBox="0 0 27.1 23.9" style="enable-background:new 0 0 27.1 23.9;" xml:space="preserve">
<style type="text/css">
	.st0{fill:#FFFFFF;}
</style>
<title>Shape</title>
<desc>Created with Sketch.</desc>
<title>Shape</title>
<desc>Created with Sketch.</desc>
<g id="_x30_1_x5F_a_x5F_Entrainement-Copy_1_" transform="translate(-82.000000, -643.000000)">
	<g id="Group-4_1_" transform="translate(29.000000, 535.000000)">
		<g id="Group-2-Copy_1_" transform="translate(38.000000, 101.000000)">
			<g id="Group-8_1_">
				<path id="Shape_1_" class="st0" d="M19.3,23.7c-0.2-0.2-0.4-0.5-0.3-0.7l0.4-2.6l-1.9-1.8c-0.2-0.2-0.3-0.5-0.2-0.8
					c0.1-0.3,0.3-0.5,0.6-0.5l2.6-0.4l1.1-2.3c0.1-0.3,0.4-0.4,0.7-0.4c0.3,0,0.6,0.2,0.7,0.4l1.1,2.3l2.6,0.4
					c0.3,0,0.5,0.2,0.6,0.5c0.1,0.3,0,0.6-0.2,0.8l-1.9,1.8l0.4,2.6c0,0.3-0.1,0.6-0.3,0.7c-0.2,0.2-0.5,0.2-0.8,0.1l-2.3-1.2
					l-2.3,1.2c-0.2,0.1-0.5,0.1-0.7,0C19.3,23.7,19.3,23.7,19.3,23.7z"/>
			</g>
		</g>
	</g>
</g>
<title>Shape</title>
<desc>Created with Sketch.</desc>
<g id="_x30_1_x5F_a_x5F_Entrainement-Copy_2_" transform="translate(-82.000000, -643.000000)">
	<g id="Group-4_2_" transform="translate(29.000000, 535.000000)">
		<g id="Group-2-Copy_2_" transform="translate(38.000000, 101.000000)">
			<g id="Group-8_2_">
				<path id="Shape_2_" class="st0" d="M32.3,23.7c-0.2-0.2-0.4-0.5-0.3-0.7l0.4-2.6l-1.9-1.8c-0.2-0.2-0.3-0.5-0.2-0.8
					c0.1-0.3,0.3-0.5,0.6-0.5l2.6-0.4l1.1-2.3c0.1-0.3,0.4-0.4,0.7-0.4c0.3,0,0.6,0.2,0.7,0.4l1.1,2.3l2.6,0.4
					c0.3,0,0.5,0.2,0.6,0.5c0.1,0.3,0,0.6-0.2,0.8l-1.9,1.8l0.4,2.6c0,0.3-0.1,0.6-0.3,0.7c-0.2,0.2-0.5,0.2-0.8,0.1l-2.3-1.2
					l-2.3,1.2c-0.2,0.1-0.5,0.1-0.7,0C32.4,23.7,32.4,23.7,32.3,23.7z"/>
			</g>
		</g>
	</g>
</g>
<desc>Created with Sketch.</desc>
</svg>
