<?xml version="1.0" encoding="utf-8"?>
<!-- Generator: Adobe Illustrator 22.0.1, SVG Export Plug-In . SVG Version: 6.00 Build 0)  -->
<svg version="1.1" id="Calque_1" xmlns="http://www.w3.org/2000/svg" xmlns:xlink="http://www.w3.org/1999/xlink" x="0px" y="0px"
	 viewBox="0 0 65.7 36.9" style="enable-background:new 0 0 65.7 36.9;" xml:space="preserve">
<style type="text/css">
	.st0{fill:#502F91;}
	.st1{fill:#FFFFFF;}
</style>
<g>
	<title>Oval</title>
	<desc>Created with Sketch.</desc>
</g>
<g>
	<title>Fichier 2</title>
	<g id="Calque_2_2_">
		<g id="Calque_1-2_1_">
			<circle id="Oval_1_" class="st0" cx="33.1" cy="18.5" r="17.5"/>
			<g id="noun_987617_cc_1_">
				<g id="Group_1_">
					<path id="Shape_1_" d="M38.1,29.8L38.1,29.8z"/>
					<path id="Shape-2_1_" d="M26.7,13.4l-0.1,0.2c0.1-0.1,0.3-0.3,0.5-0.4L26.7,13.4z"/>
					<path id="Shape-3_1_" d="M38,11.5c0,0,0.1-0.1,0.1-0.1C37.6,11.8,37,12,36.4,12C36.9,12,37.5,11.8,38,11.5z"/>
					<path id="Shape-4_1_" d="M38.3,16.7L38.3,16.7z"/>
					<path id="Shape-5_1_" d="M37.2,16.7h-0.2H37.2z"/>
					<path id="Shape-6_1_" d="M39.1,14L39.1,14l0.2-0.1L39.1,14z"/>
					<path id="Shape-7_1_" d="M38.7,16.7L38.7,16.7z"/>
					<path id="Shape-8_1_" d="M35.6,13.6c-0.1,0-0.1-0.1-0.2-0.1L35.6,13.6L35.6,13.6z"/>
					<path id="Shape-9_1_" d="M41.1,15.7L41.1,15.7L41.1,15.7z"/>
					<path id="Shape-10_1_" d="M25.6,14.6c0.1-0.1,0.1-0.1,0.2-0.2C25.8,14.3,25.7,14.5,25.6,14.6z"/>
					<path id="Shape-11_1_" d="M38.3,29.7L38.3,29.7z"/>
					<path id="Shape-12_1_" d="M39.1,29.5L39.1,29.5c-0.1,0.1-0.3,0.2-0.6,0.2C38.7,29.7,38.9,29.6,39.1,29.5z"/>
					<path id="Shape-13_1_" d="M34.4,21.5l-0.3-0.2L34.4,21.5z"/>
					<path id="Shape-14_1_" d="M36.4,16.6c-0.1,0-0.3-0.1-0.4-0.1C36.1,16.5,36.2,16.5,36.4,16.6z"/>
					<path id="Shape-15_1_" d="M36.8,16.6h-0.2H36.8z"/>
					<path id="Shape-16_1_" d="M38,29.7L38,29.7z"/>
					<path id="Shape-17_1_" d="M38.4,29.7L38.4,29.7z"/>
					<path id="Shape-18_1_" d="M34.5,12.9c-1.5-0.9-3.2-1.3-4.9-1l0,0C31.3,11.6,33,12,34.5,12.9z"/>
					<path id="Shape-19_1_" d="M41.2,12.2L41.2,12.2c-0.1,0.1-0.2,0.2-0.2,0.2C41.1,12.3,41.1,12.2,41.2,12.2z"/>
					<path id="Shape-20_1_" d="M37,29c0.2,0.4,0.5,0.6,0.9,0.7C37.5,29.6,37.2,29.3,37,29z"/>
					<path id="Shape-21_1_" d="M34.7,7.6L34.7,7.6c-0.2,0.1-0.2,0.2-0.3,0.3C34.5,7.8,34.6,7.7,34.7,7.6z"/>
					<path id="Shape-22_1_" d="M41.8,15.3L41.8,15.3L41.8,15.3L41.8,15.3z"/>
					<path id="Shape-23_1_" d="M41.6,15.4l-0.2,0.1L41.6,15.4z"/>
					<path id="Shape-24_1_" d="M39.3,13.9l0.2-0.1L39.3,13.9z"/>
					<path id="Shape-25_1_" class="st1" d="M41.2,12.2c-0.1,0.1-0.2,0.2-0.2,0.3c-0.4,0.6-0.9,1-1.5,1.4l-0.2,0.1l0,0L39.1,14
						c-1.2,0.4-2.5,0.2-3.5-0.4l-0.2-0.1c-0.3-0.2-0.6-0.4-0.9-0.5C33,12,31.3,11.7,29.6,12c-1,0.2-1.8,0.6-2.6,1.2
						c-0.2,0.1-0.3,0.3-0.5,0.4c-0.3,0.2-0.5,0.5-0.7,0.8l-0.2,0.2l-0.2,0.3c-1,1.3,1.3,2.6,2.2,1.3c0.9-1.5,2.7-2.2,4.3-1.6
						c-0.8,1.5-1.6,2.9-2.6,4.9s-3.3,3.6-5.5,2.4c-0.5-0.5-1.4-0.5-1.9,0c-0.5,0.5-0.5,1.4,0,1.9c0.1,0.1,0.3,0.2,0.4,0.3
						c2.8,1.6,6.3,0.9,8.3-1.6c0.1,0,0.1,0,0.2,0c1.4,0.6,2.8,1.4,4,2.3c0.6,0.5,1.6,2.9,2.2,4.1c0.2,0.3,0.5,0.6,0.9,0.7h0.5h0.1
						c0.2-0.1,0.5-0.2,0.6-0.3c0.4-0.3,0.5-0.9,0.3-1.3c-0.7-1.4-1.8-4.1-2.7-4.9c-0.5-0.4-1.4-1-2.3-1.6l-0.3-0.2
						c-0.2-0.1-0.5-0.3-0.7-0.4c0.8-1.5,1.6-3,2.5-4.5l0.5,0.1h0.2h0.2h0.2h0.2c0.3,0,0.7,0,1,0h0.1h0.4l0,0
						c0.9-0.1,1.7-0.4,2.4-0.9h0.1l0.2-0.2l0.2-0.1l0.1-0.1l0.1-0.1c0.5-0.4,1-0.9,1.4-1.5C44.1,12.5,42.3,11.3,41.2,12.2z"/>
					<path id="Shape-26_1_" class="st1" d="M36.4,12c0.6,0,1.3-0.2,1.7-0.7c0.5-0.5,0.8-1.1,0.8-1.8c0-1.4-1.2-2.5-2.5-2.5
						c-0.6,0-1.2,0.2-1.6,0.6c-0.1,0.1-0.2,0.2-0.3,0.3c-0.4,0.4-0.6,1-0.6,1.6C33.8,10.9,35,12,36.4,12C36.4,12,36.4,12,36.4,12z"
						/>
				</g>
			</g>
		</g>
	</g>
</g>
</svg>
