<?xml version="1.0" encoding="utf-8"?>
<!-- Generator: Adobe Illustrator 22.0.1, SVG Export Plug-In . SVG Version: 6.00 Build 0)  -->
<svg version="1.1" id="Calque_1" xmlns="http://www.w3.org/2000/svg" xmlns:xlink="http://www.w3.org/1999/xlink" x="0px" y="0px"
	 viewBox="0 0 65.7 36.9" style="enable-background:new 0 0 65.7 36.9;" xml:space="preserve">
<style type="text/css">
	.st0{fill:#FFFFFF;}
</style>
<g>
	<title>Oval</title>
	<desc>Created with Sketch.</desc>
</g>
<path class="st0" d="M31.4,0.4c-9.7,0-17.5,7.8-17.5,17.5s7.8,17.5,17.5,17.5s17.5-7.8,17.5-17.5S41,0.4,31.4,0.4z M39,11.2
	C39.1,11.2,39.1,11.2,39,11.2c0,0-0.1,0.1-0.1,0.2C38.9,11.3,39,11.3,39,11.2z M37,13c0.1,0,0.2-0.1,0.2-0.1C37.1,12.9,37,13,37,13
	C36.9,13,37,13,37,13z M32.5,6.7C32.6,6.6,32.6,6.6,32.5,6.7c0,0-0.1,0.1-0.2,0.2C32.4,6.8,32.5,6.7,32.5,6.7z M32.3,6.9
	c0.1-0.1,0.2-0.2,0.3-0.3c0.4-0.4,1-0.6,1.6-0.6c1.4,0,2.5,1.1,2.5,2.5c0,0.7-0.3,1.4-0.8,1.8c-0.5,0.4-1.1,0.7-1.7,0.7
	c-1.4,0-2.5-1.1-2.5-2.5C31.7,7.9,31.9,7.3,32.3,6.9z M36,10.4c0,0.1-0.1,0.1-0.1,0.1c-0.4,0.3-1,0.5-1.6,0.5
	C34.9,11,35.5,10.8,36,10.4z M24.6,12.4c0.1-0.1,0.2-0.1,0.3-0.2c-0.2,0.1-0.3,0.3-0.5,0.4C24.5,12.5,24.5,12.5,24.6,12.4z M34.9,28
	c0.2,0.4,0.5,0.6,0.9,0.7C35.5,28.7,35.1,28.4,34.9,28z M41.1,12.7c-0.4,0.6-0.9,1.1-1.4,1.5c0,0,0,0,0,0c0,0,0,0,0,0c0,0,0,0,0,0
	c0,0,0,0,0,0c0,0-0.1,0.1-0.1,0.1c-0.1,0.1-0.1,0.1-0.2,0.1c-0.1,0.1-0.2,0.1-0.2,0.2c0,0,0,0-0.1,0c-0.8,0.5-1.6,0.8-2.4,0.9
	c0,0,0,0,0,0c-0.1,0-0.2,0-0.3,0c0,0,0,0-0.1,0c-0.3,0-0.7,0-1,0c-0.1,0-0.1,0-0.2,0c-0.1,0-0.2,0-0.3,0c-0.1,0-0.1,0-0.2,0
	c-0.1,0-0.1,0-0.2,0c-0.1,0-0.3-0.1-0.4-0.1c-0.9,1.5-1.7,2.9-2.5,4.5c0.2,0.1,0.4,0.2,0.7,0.4c0,0,0,0,0,0c0,0,0,0,0,0c0,0,0,0,0,0
	c0.1,0.1,0.2,0.1,0.3,0.2c0.9,0.6,1.8,1.2,2.3,1.6c0.9,0.7,2,3.5,2.7,4.8c0.3,0.6,0.1,1.1-0.3,1.4c0,0,0,0,0,0c0,0,0,0.1-0.1,0.1
	c0,0-0.1,0-0.1,0.1c-0.1,0.1-0.3,0.2-0.4,0.2c0,0-0.1,0-0.1,0c0,0,0,0,0,0c0,0-0.1,0-0.1,0c0,0,0,0,0,0c0,0-0.1,0-0.1,0c0,0,0,0,0,0
	c0,0-0.1,0-0.1,0c0,0,0,0,0,0c0,0,0,0,0,0c-0.3-0.1-0.7-0.3-0.9-0.7c-0.6-1.2-1.6-3.7-2.2-4.1c-0.6-0.5-2.5-1.8-4-2.3
	c0,0-0.1,0-0.2,0c-1.8,2.2-5.3,3.3-8.3,1.6c-1.5-0.9-0.1-3.2,1.4-2.2c2.2,1.2,4.5-0.4,5.5-2.4c1-2,1.8-3.4,2.6-4.9
	c-1.6-0.5-3.1,0-4.3,1.6c-0.9,1.3-3.2,0-2.2-1.3c0.1-0.1,0.2-0.2,0.2-0.3c0.1-0.1,0.1-0.1,0.2-0.2c0.2-0.3,0.5-0.5,0.7-0.8
	c0.2-0.1,0.3-0.3,0.5-0.4c0.8-0.6,1.7-1.1,2.6-1.2c1.1-0.2,2.2-0.1,3.3,0.3c-1.1-0.4-2.3-0.5-3.3-0.3c0,0,0,0,0,0
	c1.5-0.3,3.2,0,4.9,1c0,0,0,0,0.1,0c0.1,0,0.8,0.4,0.9,0.5c0,0,0.1,0,0.2,0.1h0c0,0,0,0,0,0c1.2,0.7,2.4,0.8,3.5,0.4
	c0.1,0,0.2-0.1,0.3-0.1c0,0,0,0,0,0c0.1,0,0.1-0.1,0.2-0.1c0.5-0.3,1-0.7,1.5-1.4c0.1-0.1,0.2-0.2,0.2-0.3
	C40.2,10.3,42,11.5,41.1,12.7z"/>
</svg>
