<?xml version="1.0" encoding="UTF-8"?>
<svg width="35px" height="35px" viewBox="0 0 35 35" version="1.1" xmlns="http://www.w3.org/2000/svg" xmlns:xlink="http://www.w3.org/1999/xlink">
    <!-- Generator: Sketch 48.2 (47327) - http://www.bohemiancoding.com/sketch -->
    <title>win</title>
    <desc>Created with Sketch.</desc>
    <defs></defs>
    <g id="01_a_Entrainement-Copy-9" stroke="none" stroke-width="1" fill="none" fill-rule="evenodd" transform="translate(-296.000000, -769.000000)">
        <g id="Group-4" transform="translate(28.000000, 337.000000)">
            <g id="Group-11-Copy-4" transform="translate(0.000000, 408.000000)">
                <g id="Group-10">
                    <g id="win" transform="translate(268.000000, 24.000000)">
                        <circle id="Oval" fill="#57D780" cx="17.5" cy="17.5" r="17.5"></circle>
                        <g id="noun_987617_cc" transform="translate(6.000000, 6.000000)" fill-rule="nonzero">
                            <g id="Group">
                                <path d="M16.5603547,22.7459808 C16.5528547,22.7457308 16.5453547,22.7457308 16.5376047,22.7452308 C16.5451047,22.7454808 16.5526047,22.7457308 16.5603547,22.7459808 Z" id="Shape" fill="#000000"></path>
                                <path d="M5.12941279,6.41037637 C5.06966279,6.47012637 5.00766279,6.53337637 4.94616279,6.59512637 C5.09391279,6.45437637 5.24491279,6.32262637 5.39891279,6.19862637 C5.30866279,6.26662637 5.21866279,6.33612637 5.12941279,6.41037637 Z" id="Shape" fill="#000000"></path>
                                <path d="M16.3823256,4.5122967 C16.4347674,4.46528571 16.4836279,4.41498901 16.5322326,4.36443956 C16.075093,4.78223077 15.4639535,5.03497802 14.7957674,5.03497802 C15.4212326,5.03472527 15.9502558,4.84516484 16.3823256,4.5122967 Z" id="Shape" fill="#000000"></path>
                                <path d="M16.7105756,9.70878022 C16.6890756,9.71053022 16.6675756,9.71153022 16.6463256,9.71303022 C16.6678256,9.71153022 16.6893256,9.71053022 16.7105756,9.70878022 Z" id="Shape" fill="#000000"></path>
                                <path d="M15.6557093,9.69925824 C15.6029593,9.69425824 15.5502093,9.69000824 15.4972093,9.68375824 C15.5499593,9.69000824 15.6027093,9.69450824 15.6557093,9.69925824 Z" id="Shape" fill="#000000"></path>
                                <path d="M17.4875465,6.98108791 C17.4815465,6.98708791 17.4760465,6.99058791 17.4700465,6.99508791 C17.5545465,6.96258791 17.6380465,6.92508791 17.7210465,6.88508791 C17.6435465,6.92108791 17.5655465,6.95333791 17.4875465,6.98108791 Z" id="Shape" fill="#000000"></path>
                                <path d="M17.0793837,9.66783516 C17.0716337,9.66908516 17.0636337,9.67033516 17.0558837,9.67133516 C17.0636337,9.67033516 17.0716337,9.66908516 17.0793837,9.66783516 Z" id="Shape" fill="#000000"></path>
                                <path d="M14.0231686,6.55396978 C13.9759186,6.50696978 13.8816686,6.46021978 13.8344186,6.46021978 C13.8916686,6.49396978 13.9481686,6.52246978 14.0051686,6.55396978 L14.0231686,6.55396978 Z" id="Shape" fill="#000000"></path>
                                <path d="M19.5482558,8.7260989 C19.5297558,8.7383489 19.5107558,8.7495989 19.4922558,8.7615989 C19.5110058,8.7495989 19.5297558,8.7380989 19.5482558,8.7260989 Z" id="Shape" fill="#000000"></path>
                                <path d="M4.06386047,7.57443132 C4.11536047,7.50718132 4.16761047,7.44168132 4.22011047,7.37668132 C4.16711047,7.44143132 4.11536047,7.50743132 4.06386047,7.57443132 Z" id="Shape" fill="#000000"></path>
                                <path d="M16.6936744,22.7437143 C16.6904244,22.7439643 16.6871744,22.7439643 16.6836744,22.7442143 C16.6869244,22.7442143 16.6901744,22.7439643 16.6936744,22.7437143 Z" id="Shape" fill="#000000"></path>
                                <path d="M17.4879535,22.46525 C17.5155814,22.43825 17.5396279,22.40825 17.5644419,22.379 C17.3879302,22.53625 17.1674186,22.649 16.9320698,22.70425 C17.1305814,22.65975 17.3214186,22.57825 17.4879535,22.46525 Z" id="Shape" fill="#000000"></path>
                                <path d="M12.8189477,14.4850055 C12.7296977,14.4255055 12.6346977,14.3660055 12.5376977,14.3065055 C12.6311977,14.3645055 12.7249477,14.4245055 12.8186977,14.4852555 L12.8189477,14.4850055 Z" id="Shape" fill="#000000"></path>
                                <path d="M14.7979535,9.56449451 C14.6534535,9.53149451 14.5089535,9.49574451 14.3639535,9.45249451 C14.5089535,9.49549451 14.6537035,9.53199451 14.7979535,9.56449451 Z" id="Shape" fill="#000000"></path>
                                <path d="M15.2406395,9.64794231 C15.1676395,9.63619231 15.0943895,9.62319231 15.0211395,9.60869231 C15.0943895,9.62294231 15.1676395,9.63644231 15.2406395,9.64794231 Z" id="Shape" fill="#000000"></path>
                                <path d="M16.4385581,22.7363214 C16.4233081,22.7343214 16.4078081,22.7330714 16.3925581,22.7305714 C16.4078081,22.7328214 16.4233081,22.7343214 16.4385581,22.7363214 Z" id="Shape" fill="#000000"></path>
                                <path d="M16.8348081,22.7277912 C16.8303081,22.7285412 16.8260581,22.7290412 16.8215581,22.7297912 C16.8260581,22.7290412 16.8305581,22.7285412 16.8348081,22.7277912 Z" id="Shape" fill="#000000"></path>
                                <path d="M12.9211628,5.93753846 C11.2386744,4.9401978 9.55669767,4.65535165 8.01823256,4.9401978 C8.01823256,4.94727473 8.01516279,4.95182418 8.01337209,4.95713187 C9.55746512,4.6417033 11.2389302,4.95435165 12.9211628,5.93753846 Z" id="Shape" fill="#000000"></path>
                                <path d="M19.6416802,5.1616044 C19.6116802,5.1811044 19.5816802,5.2013544 19.5526802,5.2238544 C19.5056802,5.2711044 19.4586802,5.3186044 19.4119302,5.4126044 C19.4819302,5.3143544 19.5596802,5.2321044 19.6416802,5.1616044 Z" id="Shape" fill="#000000"></path>
                                <path d="M15.4693256,22.0388022 C15.6732093,22.4416813 15.9952791,22.652978 16.3434419,22.7207143 C15.9998837,22.650956 15.6780698,22.4381429 15.4693256,22.0388022 Z" id="Shape" fill="#000000"></path>
                                <path d="M13.1564535,0.595472527 C13.1242035,0.618222527 13.0914535,0.640472527 13.0607035,0.664222527 C12.9887035,0.736222527 12.9214535,0.814222527 12.8569535,0.894472527 C12.9484535,0.786972527 13.0484535,0.686722527 13.1564535,0.595472527 Z" id="Shape" fill="#000000"></path>
                                <path d="M20.1789942,8.26435714 C20.2029942,8.24285714 20.2252442,8.21960714 20.2489942,8.19785714 C20.2054942,8.23535714 20.1627442,8.27535714 20.1187442,8.31160714 C20.1387442,8.29510714 20.1589942,8.28060714 20.1789942,8.26435714 Z" id="Shape" fill="#000000"></path>
                                <path d="M19.9811395,8.41547253 C19.9161395,8.46647253 19.8501395,8.51522253 19.7841395,8.56322253 C19.8503895,8.51572253 19.9158895,8.46597253 19.9811395,8.41547253 Z" id="Shape" fill="#000000"></path>
                                <path d="M17.7611628,6.86817308 C17.8194128,6.83942308 17.8774128,6.81042308 17.9346628,6.77792308 C17.8771628,6.80967308 17.8191628,6.84067308 17.7611628,6.86817308 Z" id="Shape" fill="#000000"></path>
                                <path d="M19.6470233,5.1616044 C19.5631163,5.23287912 19.4835581,5.31603297 19.4119302,5.41536264 C18.9619535,6.03206593 18.4674651,6.4811978 17.9389535,6.77792308 C17.8803721,6.81078022 17.8207674,6.8400989 17.7614186,6.86916484 C17.7501628,6.87472527 17.7386512,6.87978022 17.7273953,6.88534066 C17.6424651,6.92578022 17.5570233,6.96369231 17.4705581,6.99654945 C16.4135349,7.39664835 15.237814,7.22705495 14.0096512,6.55525275 C13.9513256,6.52340659 13.8935116,6.49459341 13.8349302,6.46047253 C13.690907,6.36543956 13.0656977,5.98505495 12.9216744,5.93753846 C11.2394419,4.9546044 9.55772093,4.64195604 8.01388372,4.95713187 C7.08604651,5.14643956 6.20809302,5.56321978 5.40995349,6.19862637 C5.25237209,6.32398901 5.09786047,6.45718681 4.94667442,6.59948352 C4.69623256,6.8352967 4.45525581,7.09486813 4.22425581,7.37693407 C4.17053488,7.44264835 4.11681395,7.50861538 4.06437209,7.57685714 C3.98711628,7.67694505 3.91062791,7.77930769 3.83593023,7.8847033 C2.87483721,9.21491209 5.13418605,10.4973516 6.04795349,9.1679011 C7.249,7.50532967 8.73988372,7.03016484 10.3747907,7.55259341 C9.55746512,9.0250989 8.78823256,10.4495824 7.77827907,12.445022 C6.72023256,14.4872198 4.46139535,16.102022 2.24911628,14.8668462 C0.663581395,13.9172747 -0.730860465,16.1970549 0.807604651,17.0996154 C3.83567442,18.8091978 7.34544186,17.7645934 9.12386047,15.5320769 C9.17195349,15.5320769 9.26788372,15.5790879 9.31597674,15.5790879 C10.8063488,16.102022 12.7295581,17.4314725 13.3066744,17.9073956 C13.8830233,18.3818022 14.8924651,20.8043846 15.4698372,22.0388022 C15.6783256,22.4381429 16.0003953,22.650956 16.3439535,22.7207143 C16.3603256,22.724 16.3764419,22.7277912 16.392814,22.7305714 C16.4084186,22.7330989 16.4242791,22.7343626 16.4398837,22.7363846 C16.4723721,22.7404286 16.5051163,22.7434615 16.5378605,22.7452308 C16.5455349,22.7457363 16.5532093,22.7457363 16.5611395,22.745989 C16.6020698,22.7472527 16.643,22.7467473 16.6839302,22.7444725 C16.6872558,22.7442198 16.6905814,22.7442198 16.6941628,22.743967 C16.7368837,22.7411868 16.7796047,22.7366374 16.8220698,22.7298132 C16.8266744,22.7290549 16.8312791,22.7285495 16.8356279,22.7277912 C16.8683721,22.7222308 16.9006047,22.7154066 16.9325814,22.7078242 C17.1679302,22.651967 17.3884419,22.537978 17.5649535,22.379 C17.9289767,22.0514396 18.1047209,21.5350769 17.8256279,20.9464286 C17.1520698,19.5692088 15.9986047,16.8142637 15.1334419,16.102022 C14.6054419,15.7191099 13.7164884,15.0571648 12.8254884,14.4874725 C12.7295581,14.4260549 12.6336279,14.3653956 12.5379535,14.3067582 C12.3087442,14.165978 12.082093,14.034044 11.8638837,13.9172747 C12.6812093,12.3972527 13.4987907,10.9252527 14.3639535,9.45274725 C14.5123256,9.49647253 14.6604419,9.53261538 14.8080465,9.56597802 C14.8791628,9.58215385 14.9500233,9.5952967 15.0211395,9.60894505 C15.096093,9.62335165 15.1710465,9.63674725 15.2457442,9.64862637 C15.3296512,9.66202198 15.4135581,9.67415385 15.4972093,9.68401099 C15.5514419,9.69058242 15.6054186,9.69462637 15.6593953,9.69968132 C15.9919535,9.73076923 16.321186,9.73506593 16.6463256,9.71332967 C16.6683256,9.71181319 16.6903256,9.7108022 16.7120698,9.70903297 C16.827186,9.69993407 16.9417907,9.68754945 17.0558837,9.67187912 C17.063814,9.67086813 17.072,9.66935165 17.0799302,9.66834066 C17.9264186,9.54828571 18.7378605,9.24524176 19.4922558,8.76224176 C19.511186,8.75010989 19.5306279,8.73873626 19.5495581,8.72635165 C19.6283488,8.67479121 19.7063721,8.6207033 19.7841395,8.5650989 C19.8519302,8.51657143 19.9192093,8.46728571 19.9857209,8.41572527 C20.0299767,8.38135165 20.0747442,8.34849451 20.1187442,8.31285714 C20.1637674,8.27620879 20.2075116,8.23576923 20.2520233,8.19785714 C20.741907,7.78031868 21.2026279,7.28316484 21.6229302,6.69754945 C22.5121395,5.46717582 20.6866512,4.27875824 19.6470233,5.1616044 Z" id="Shape" fill="#FFFFFF"></path>
                                <path d="M14.7957674,5.03472527 C15.4639535,5.03472527 16.075093,4.78223077 16.5322326,4.36418681 C17.0292791,3.90974725 17.344186,3.25968132 17.344186,2.51736264 C17.344186,1.1403956 16.1902093,0.000505494505 14.7957674,0.000505494505 C14.1774651,0.000505494505 13.6075116,0.225703297 13.1634186,0.595472527 C13.052907,0.687725275 12.9503256,0.788824176 12.8566977,0.898010989 C12.4791163,1.33779121 12.2488837,1.90369231 12.2488837,2.51761538 C12.2488837,3.94285714 13.402093,5.03472527 14.7957674,5.03472527 Z" id="Shape" fill="#FFFFFF"></path>
                            </g>
                        </g>
                    </g>
                </g>
            </g>
        </g>
    </g>
</svg>