<svg xmlns="http://www.w3.org/2000/svg" viewBox="0 0 39 39"><defs><style>.cls-1{fill:#fff;}</style></defs><title>Fichier 4</title><g id="Calque_2" data-name="Calque 2"><g id="Calque_1-2" data-name="Calque 1"><path class="cls-1" d="M19.5,0A19.5,19.5,0,1,0,39,19.5,19.5,19.5,0,0,0,19.5,0Zm8.8,12.26.1-.07a1.39,1.39,0,0,0-.26.28A.53.53,0,0,1,28.3,12.26Zm-2.32,2,.26-.11a1.39,1.39,0,0,1-.28.12ZM21,7.12l.1-.08a2.13,2.13,0,0,0-.33.34A1.86,1.86,0,0,1,21,7.12Zm-.23.26A2.73,2.73,0,0,1,21.13,7a2.85,2.85,0,0,1,4.69,2.17,2.8,2.8,0,0,1-.91,2.08A2.87,2.87,0,0,1,23,12,2.83,2.83,0,0,1,20.1,9.21,2.78,2.78,0,0,1,20.79,7.38Zm4.12,3.91-.17.17A2.86,2.86,0,0,1,23,12,2.87,2.87,0,0,0,24.91,11.29ZM12.12,13.6l.3-.24c-.17.14-.34.28-.51.44Zm11.6,17.62a1.4,1.4,0,0,0,1,.77A1.4,1.4,0,0,1,23.72,31.22Zm6.9-17.3a9.34,9.34,0,0,1-1.54,1.69l0,0,0,0-.05,0h0l-.15.12-.22.16-.27.19-.06,0a6.9,6.9,0,0,1-2.71,1h0l-.39,0H25a6.86,6.86,0,0,1-1.11,0h-.18l-.28,0-.26-.05L23,17.15a4.37,4.37,0,0,1-.49-.12c-1,1.66-1.89,3.32-2.81,5,.25.13.5.28.76.44h0l.3.19c1,.65,2,1.39,2.59,1.82,1,.81,2.26,3.91,3,5.47a1.31,1.31,0,0,1-.29,1.61h0l-.09.1a1.65,1.65,0,0,1-.54.24l-.08,0-.11,0h-.17a.33.33,0,0,1-.14,0H24.7a1.4,1.4,0,0,1-1-.77c-.65-1.39-1.78-4.13-2.43-4.66a18.68,18.68,0,0,0-4.47-2.63c-.06,0-.17-.05-.22-.05a7.35,7.35,0,0,1-9.33,1.77,1.5,1.5,0,1,1,1.62-2.52c2.48,1.39,5-.43,6.2-2.73s2-3.86,2.91-5.52c-1.83-.59-3.5-.05-4.85,1.82-1,1.5-3.56.06-2.48-1.44.08-.12.17-.24.26-.35a1.84,1.84,0,0,1,.17-.22,7.68,7.68,0,0,1,.82-.88c.16-.16.34-.31.51-.45A6.79,6.79,0,0,1,15.36,12a7.15,7.15,0,0,1,4.09.41,7.17,7.17,0,0,0-4.1-.41v0A7.8,7.8,0,0,1,20.81,13l.05,0a10.7,10.7,0,0,1,1,.59.33.33,0,0,1,.21.11h0a4.55,4.55,0,0,0,3.88.5l.29-.13,0,0,.2-.1a5.26,5.26,0,0,0,1.65-1.54,1.76,1.76,0,0,1,.26-.28C29.57,11.19,31.62,12.53,30.62,13.92Z"/></g></g></svg>