<?xml version="1.0" encoding="UTF-8" standalone="no"?>
<svg width="25px" height="28px" viewBox="0 0 25 28" version="1.1" xmlns="http://www.w3.org/2000/svg" xmlns:xlink="http://www.w3.org/1999/xlink">
    <!-- Generator: Sketch 48.2 (47327) - http://www.bohemiancoding.com/sketch -->
    <title>Group 8</title>
    <desc>Created with Sketch.</desc>
    <defs></defs>
    <g id="24_a_Entrainement-Copy-12" stroke="none" stroke-width="1" fill="none" fill-rule="evenodd" transform="translate(-208.000000, -603.000000)">
        <g id="Group-7" transform="translate(70.000000, 594.000000)" fill="#FFFFFF">
            <g id="buttons-copy-2" transform="translate(128.000000, 0.000000)">
                <g id="Group-8" transform="translate(10.000000, 9.000000)">
                    <path d="M12.4150943,23.9310345 C5.99590943,23.9310345 0.79245283,18.7438897 0.79245283,12.3448276 C0.79245283,5.94576552 5.99590943,0.75862069 12.4150943,0.75862069 C18.8342792,0.75862069 24.0377358,5.94576552 24.0377358,12.3448276 C24.0377358,18.7438897 18.8342792,23.9310345 12.4150943,23.9310345 Z M6.77811321,12.8580966 C7.06984151,12.5811862 7.4592,12.4039172 7.8904,12.3853793 C8.17050566,12.4212966 8.41458113,12.5406345 8.60403019,12.7179034 C8.82369811,12.7793103 8.60286792,13.1998897 8.97479245,12.9855448 C9.0608,12.7897379 9.11077736,12.5614897 9.11077736,12.3216552 C9.11077736,12.2312828 9.10380377,12.1432276 9.0898566,12.0574897 C9.50362264,11.2360276 10.0987019,10.5512828 10.8286038,10.0438069 C11.0633811,9.96270345 11.3330264,9.89666207 11.6096453,9.848 C11.7758491,9.79817931 11.9153208,9.51547586 12.0664151,9.44943448 C12.7870189,9.14008276 12.7986415,9.80628966 12.6940377,8.78786207 C12.5778113,7.68948966 11.8455849,7.00011034 12.1710189,5.83222069 C12.3558189,5.58427586 12.466234,5.27144828 12.466234,4.93313103 C12.466234,4.70835862 12.4174189,4.49517241 12.3290868,4.304 C12.1349887,3.84286897 11.7281962,3.50223448 11.5654792,3.11873103 C7.8904,3.46747586 4.86502642,5.90173793 3.67138113,9.20844138 C3.6237283,9.46565517 3.6074566,9.68811034 3.6074566,9.91404138 C3.6074566,10.1399724 3.6237283,10.3624276 3.65394717,10.5802483 C3.84920755,11.2788966 4.13163774,11.9115034 4.49426415,12.4896552 C4.87083774,13.2902621 5.53797736,13.9390897 6.35853585,14.3040552 C6.90944906,14.5380966 7.36040755,14.7860414 7.78230943,15.0733793 C8.26348679,15.2390621 8.69817358,15.5182897 9.05615094,15.8739862 C9.17237736,16.3860966 8.62611321,16.9236966 8.75396226,17.5528276 C9.05266415,18.2283034 9.42226415,18.809931 9.86624906,19.3266759 C10.0580226,19.735669 10.1742491,20.2280828 10.1742491,20.7459862 C10.1742491,20.9499034 10.1568151,21.1491862 10.1219472,21.3426759 C10.8111698,21.5048828 11.6003472,21.6114759 12.4139321,21.6126345 C12.4499623,21.6126345 12.4848302,21.6126345 12.5196981,21.6126345 C12.6289509,21.4851862 12.7358792,21.3461517 12.8346717,21.2001655 C12.9962264,20.777269 13.1531321,20.4377931 13.3309585,20.1122207 C13.636634,19.9106207 13.9225509,19.6395034 14.1747623,19.3394207 C14.4676528,18.9373793 14.6396679,18.4449655 14.6396679,17.912 C14.6396679,17.6547862 14.5989887,17.4056828 14.5246038,17.1728 C14.0236679,16.8182621 13.4448604,16.4973241 12.8265358,16.2540138 C11.8909132,15.6318345 11.2284226,14.6979862 10.0545358,14.8092138 C9.78605283,14.9447724 9.4629434,15.0768552 9.12937358,15.1857655 C8.60170566,15.1208828 8.88064906,15.0154483 8.6133283,14.7999448 C8.39714717,14.4824828 8.19142642,14.1175172 8.01708679,13.7351724 C7.68351698,13.5022897 6.06796981,14.0352552 6.77695094,12.8569379 L6.77811321,12.8580966 Z M13.6238491,3.16275862 C13.6215245,3.2009931 13.6192,3.24502069 13.6192,3.28904828 C13.6192,3.33307586 13.6203623,3.37826207 13.6238491,3.42228966 C13.6238491,3.43387586 13.6238491,3.45473103 13.6238491,3.47558621 C13.6238491,4.30515862 13.5692226,5.12198621 13.4622943,5.92375172 C13.5192453,6.79503448 13.9376604,7.04529655 14.6233962,6.56562759 C14.9139623,6.36055172 15.1231698,5.93302069 15.4253585,5.69897931 C15.9018868,5.3398069 16.4946415,5.20077241 16.9827925,4.85434483 C17.0792604,4.72921379 17.1548075,4.58091034 17.2012981,4.42102069 C16.1773434,3.78146207 14.9662642,3.34002759 13.6703396,3.1673931 L13.6238491,3.16275862 Z M20.2952453,7.44038621 C20.272,7.47630345 20.2487547,7.50526897 20.2255094,7.54350345 C19.8931019,7.98841379 19.6920302,8.54802759 19.6908679,9.15514483 C19.7606038,9.62786207 20.1209057,9.36833103 20.0744151,9.79586207 C19.8884528,11.6797793 18.8656604,9.1424 18.8075472,9.12502069 C18.7343245,9.18758621 18.6436679,9.23277241 18.5437132,9.25131034 C18.3972679,9.35558621 18.3031245,9.51895172 18.2961509,9.70548966 C18.3298566,9.72982069 18.3519396,9.76921379 18.3519396,9.81324138 C18.3519396,9.86190345 18.3252075,9.90477241 18.2856906,9.92678621 C17.5871698,10.3346207 18.2264151,10.7725793 18.4472453,10.9301517 C18.5088453,10.9568 18.5797434,10.9741793 18.6552906,10.9776552 C19.1446038,11.417931 18.6796981,11.6554483 18.5053585,11.9798621 C18.3066113,12.3506207 18.1636528,12.7839448 18.1008906,13.2416 C17.9358491,14.0329379 17.2268679,14.5601103 17.0060377,15.3352276 C16.9618717,15.4881655 16.9374642,15.6631172 16.9374642,15.8450207 C16.9374642,16.7499034 17.5662491,17.5088 18.4112151,17.7115586 C19.0864906,17.869131 19.5281509,17.7984552 19.8535849,17.887669 C21.0146868,16.3640828 21.7132075,14.4361379 21.7132075,12.3448276 C21.7132075,10.5269517 21.1843774,8.83188966 20.2731623,7.40331034 L20.2952453,7.44038621 Z" id="Shape" fill-rule="nonzero"></path>
                    <path d="M5.47465438,19 L11.5253456,19 C13.4423963,19 15,20.6283186 15,22.539823 L15,27 L2,27 L2,22.539823 C2,20.6283186 3.55760369,19 5.47465438,19 Z M8.5,11 C10.5428571,11 12.2142857,12.8 12.2142857,15 C12.2142857,17.2 10.5428571,19 8.5,19 C6.45714286,19 4.78571429,17.2 4.78571429,15 C4.78571429,12.8 6.45714286,11 8.5,11 Z" id="Shape" stroke="#57C9D7"></path>
                </g>
            </g>
        </g>
    </g>
</svg>